<?xml version="1.0" encoding="UTF-8"?>
<svg version="1.1" xmlns="http://www.w3.org/2000/svg" width="962" height="259">
<path d="M0 0 C17.17367785 17.29710264 24.94443376 39.79219356 25.625 63.9375 C25.40018601 87.99259685 15.39256743 110.97334854 -1.625 127.875 C-20.13374796 145.73442271 -42.95614501 152.3779857 -68.12817383 152.22973633 C-91.72310527 151.74000102 -112.73053127 142.16860428 -129.18359375 125.37890625 C-139.96947898 114.12534036 -147.68563366 101.01046013 -151.625 85.875 C-151.84929687 85.01648438 -152.07359375 84.15796875 -152.3046875 83.2734375 C-157.17232626 60.13548338 -153.38053192 37.12162933 -141.625 16.875 C-140.86509766 15.56595703 -140.86509766 15.56595703 -140.08984375 14.23046875 C-126.85050889 -6.82708057 -106.01714264 -19.38681804 -82.27734375 -25.33984375 C-52.0626142 -31.83520272 -21.81557423 -21.18767442 0 0 Z M-123.44946289 12.47460938 C-132.31969097 23.02514141 -138.7702711 36.20564802 -140.625 49.875 C-140.77453125 50.71160156 -140.9240625 51.54820313 -141.078125 52.41015625 C-143.81898263 71.68553547 -138.29256726 91.83493617 -127.625 107.875 C-124.30732845 112.21846633 -120.53121497 116.06376898 -116.625 119.875 C-116.06554687 120.45507812 -115.50609375 121.03515625 -114.9296875 121.6328125 C-105.11106514 131.04018366 -91.73091904 136.30090333 -78.625 138.875 C-77.86832031 139.02453125 -77.11164063 139.1740625 -76.33203125 139.328125 C-57.84196818 142.22553695 -40.52729522 138.1678155 -24.625 128.875 C-23.36816406 128.18277344 -23.36816406 128.18277344 -22.0859375 127.4765625 C-9.65133843 120.01580306 -0.93628776 108.66941751 5.375 95.875 C5.79265625 95.09769531 6.2103125 94.32039063 6.640625 93.51953125 C14.70213234 77.48675733 14.53926307 55.86834867 9.375 38.875 C7.22096984 33.27274872 4.38471225 28.05587515 1.375 22.875 C0.8903125 22.01261719 0.405625 21.15023437 -0.09375 20.26171875 C-10.21727199 3.69328014 -27.3255497 -6.95305123 -45.75 -11.8125 C-74.34153666 -18.5227586 -103.68792396 -9.33398134 -123.44946289 12.47460938 Z " fill="#171719" transform="translate(196.625,76.125)"/>
<path d="M0 0 C5.61 0 11.22 0 17 0 C17.9075 2.083125 18.815 4.16625 19.75 6.3125 C23.16004891 14.11631453 26.60768021 21.90341955 30.0625 29.6875 C30.5565332 30.80229736 31.05056641 31.91709473 31.55957031 33.06567383 C34.97083987 40.74328795 38.46016417 48.38085767 42 56 C42.43828125 54.94167969 42.8765625 53.88335937 43.328125 52.79296875 C47.49465242 42.78769523 51.79529303 32.84580219 56.1875 22.9375 C56.68604492 21.80916748 57.18458984 20.68083496 57.69824219 19.51831055 C60.63274364 12.92250671 63.70316005 6.4226388 67 0 C69.64590014 -0.02684679 72.29153096 -0.04676357 74.9375 -0.0625 C75.69224609 -0.07087891 76.44699219 -0.07925781 77.22460938 -0.08789062 C79.14994313 -0.09652441 81.07535581 -0.05224333 83 0 C84.78857062 1.78857062 84.11990579 4.20123134 84.12442017 6.58209229 C84.11902725 7.78294464 84.11902725 7.78294464 84.11352539 9.00805664 C84.11367142 9.84700974 84.11381744 10.68596283 84.1139679 11.55033875 C84.1132685 14.33697044 84.10547485 17.12353616 84.09765625 19.91015625 C84.09579217 21.83686791 84.09436822 23.76358005 84.09336853 25.69029236 C84.08954259 30.77187397 84.07971166 35.8534272 84.06866455 40.93499756 C84.05845206 46.11616634 84.05387126 51.29733969 84.04882812 56.47851562 C84.03808946 66.65235625 84.02101213 76.82617577 84 87 C79.38 87 74.76 87 70 87 C69.67 66.87 69.34 46.74 69 26 C61.28461543 42.87475381 61.28461543 42.87475381 53.875 59.875 C53.29878906 61.22851562 53.29878906 61.22851562 52.7109375 62.609375 C51.80489854 64.73856657 50.9020338 66.86910855 50 69 C44.39 69 38.78 69 33 69 C27.54474198 58.43769192 22.76262632 47.6900125 18.16918945 36.72729492 C16.48594145 32.80088787 14.73502411 28.90380424 13 25 C12.67 45.46 12.34 65.92 12 87 C8.04 87 4.08 87 0 87 C0 58.29 0 29.58 0 0 Z " fill="#171719" transform="translate(446,89)"/>
<path d="M0 0 C19.98291913 0 35.80331671 6.96750284 50.03125 21.00390625 C62.50639897 34.54600875 66.61311044 49.97043567 68 68 C45.56 68 23.12 68 0 68 C0 45.56 0 23.12 0 0 Z " fill="#171719" transform="translate(132,72)"/>
<path d="M0 0 C10.74454366 9.43946597 16.51076954 19.99576143 17.515625 34.484375 C17.63316408 48.49503301 13.80580394 60.58128556 4.34765625 71.0625 C-5.59352622 81.00368247 -17.21677034 83.3588633 -30.65332031 83.37939453 C-37.40882104 83.28514797 -42.79335966 82.63803972 -48.65234375 79.0625 C-49.41289062 78.63839844 -50.1734375 78.21429688 -50.95703125 77.77734375 C-62.23113711 70.9635323 -68.97132671 60.8540964 -72.10546875 48.23046875 C-74.38443413 35.02874787 -72.78531444 20.59224134 -65.46484375 9.0625 C-50.01256984 -9.45107345 -19.72530744 -15.3953619 0 0 Z M-50.58984375 13.8125 C-54.16667284 18.08955489 -56.17513004 21.7076003 -57.65234375 27.0625 C-57.83152344 27.67351562 -58.01070313 28.28453125 -58.1953125 28.9140625 C-60.16166936 38.15762039 -58.81768572 47.64945054 -54.65234375 56.0625 C-49.52497999 63.84805925 -42.84747197 68.75136175 -33.69921875 70.6875 C-25.33725153 71.7166652 -18.64474858 70.32235179 -11.33984375 66.1875 C-2.58855933 59.26787976 1.74787558 52.09049623 3.34765625 41.0625 C3.69350311 29.76926978 1.09895131 20.07597538 -6.71875 11.75390625 C-14.07913464 5.31542837 -22.37557047 4.58433042 -31.82421875 4.80078125 C-40.02291103 5.36130409 -44.91602602 7.89278648 -50.58984375 13.8125 Z " fill="#171719" transform="translate(411.65234375,94.9375)"/>
<path d="M0 0 C7.29005733 6.41624909 11.90502448 12.87696777 15.28125 22.0078125 C15.52746094 22.66265625 15.77367187 23.3175 16.02734375 23.9921875 C19.75814171 36.03365953 17.18852336 48.8739396 12.15625 60.0703125 C5.59097223 72.27127119 -3.79050377 78.69839709 -16.71875 83.0078125 C-31.71744865 84.34110517 -44.86513584 83.4842811 -56.9140625 73.66015625 C-67.20680519 64.23628145 -71.89454791 53.95792605 -72.9375 40.1015625 C-73.39574959 25.59032536 -69.36076252 13.80388423 -59.46875 3.1953125 C-44.19389406 -11.31067485 -16.72962534 -12.98175473 0 0 Z M-50.65625 13.8203125 C-58.32390915 23.0160942 -59.47434549 32.25410481 -58.71875 44.0078125 C-57.08373033 52.98656458 -52.15944188 60.50541859 -44.90625 65.9453125 C-36.80534673 71.15649057 -29.11034683 71.86713153 -19.71875 70.0078125 C-12.57795329 67.81326829 -6.25170935 64.07264116 -2.24609375 57.64453125 C2.69939084 48.14285677 5.08362539 38.70887097 2.59375 28.0703125 C-0.32959954 19.30026388 -5.22750881 11.27826129 -13.71875 7.0078125 C-27.04474634 2.48079939 -40.77265051 3.39731914 -50.65625 13.8203125 Z " fill="#171719" transform="translate(619.71875,94.9921875)"/>
<path d="M0 0 C51.90566038 0 51.90566038 0 65.296875 12.0703125 C75.44132991 22.71054904 77.49406104 34.13892184 77.27734375 48.21484375 C76.82472533 59.75999128 71.03659601 69.39305113 62.8125 77.25 C45.07912309 92.18650203 22.15031998 88 0 88 C0 58.96 0 29.92 0 0 Z M14 13 C14 33.46 14 53.92 14 75 C37.25982545 76.0367588 37.25982545 76.0367588 56.05078125 65.37890625 C62.29780771 57.75477977 63.84742913 49.36731967 63.48046875 39.6875 C62.39910349 31.38824138 59.28074243 24.00345775 52.9375 18.3984375 C42.09164394 10.57017849 26.70637468 10.45872506 14 13 Z " fill="#171719" transform="translate(653,89)"/>
<path d="M0 0 C44.90941358 0 44.90941358 0 53.4609375 8.20703125 C59.94716448 15.76332106 60.8866289 23.36755335 60.4140625 32.99609375 C59.77271538 40.70479944 56.71289937 46.25522123 51.05859375 51.49609375 C42.69761769 57.60420719 33.09817649 58.15936857 23.125 58.0625 C20.11375 58.041875 17.1025 58.02125 14 58 C14 67.57 14 77.14 14 87 C9.38 87 4.76 87 0 87 C0 58.29 0 29.58 0 0 Z M14 12 C14 22.89 14 33.78 14 45 C19.259375 45.12375 19.259375 45.12375 24.625 45.25 C26.265896 45.30462402 26.265896 45.30462402 27.93994141 45.36035156 C33.97716893 45.42901935 37.4421497 45.07576998 42 41 C45.6469441 36.20138935 46.64750358 32.51829807 46.390625 26.5 C45.61492052 21.5354913 43.60460761 17.60460761 40.0625 14.0625 C34.79646912 11.34969621 28.95334974 11.88203554 23.1875 11.9375 C20.155625 11.958125 17.12375 11.97875 14 12 Z " fill="#171719" transform="translate(270,89)"/>
<path d="M0 0 C1.35568336 0.00333092 1.35568336 0.00333092 2.73875427 0.00672913 C3.75973709 0.00680466 4.78071991 0.00688019 5.8326416 0.00695801 C6.94304306 0.01211929 8.05344452 0.01728058 9.19749451 0.02259827 C10.89336952 0.02472069 10.89336952 0.02472069 12.62350464 0.02688599 C16.25105891 0.03250433 19.8785525 0.04505994 23.50608826 0.05775452 C25.95856133 0.06276715 28.41103536 0.06733047 30.86351013 0.07142639 C36.89022371 0.08247971 42.91690165 0.09923568 48.94358826 0.12025452 C48.97045379 2.09934849 48.98992201 4.07854423 49.00608826 6.05775452 C49.01768982 7.15990295 49.02929138 8.26205139 49.04124451 9.39759827 C48.94358826 12.12025452 48.94358826 12.12025452 47.94358826 13.12025452 C45.20464741 13.20884097 42.49105556 13.23548931 39.75218201 13.21791077 C38.93234329 13.21649582 38.11250458 13.21508087 37.26782227 13.21362305 C34.63887443 13.20800741 32.01001052 13.19545231 29.38108826 13.18275452 C27.60309469 13.17774153 25.8250998 13.17317827 24.04710388 13.16908264 C19.67920668 13.15888204 15.31149185 13.13930984 10.94358826 13.12025452 C10.94358826 21.04025452 10.94358826 28.96025452 10.94358826 37.12025452 C22.49358826 37.12025452 34.04358826 37.12025452 45.94358826 37.12025452 C45.94358826 41.08025452 45.94358826 45.04025452 45.94358826 49.12025452 C34.39358826 49.12025452 22.84358826 49.12025452 10.94358826 49.12025452 C10.94358826 57.70025452 10.94358826 66.28025452 10.94358826 75.12025452 C23.81358826 75.12025452 36.68358826 75.12025452 49.94358826 75.12025452 C49.94358826 79.08025452 49.94358826 83.04025452 49.94358826 87.12025452 C32.45358826 87.12025452 14.96358826 87.12025452 -3.05641174 87.12025452 C-3.09652055 65.6976938 -3.09652055 65.6976938 -3.10523987 56.59877014 C-3.11122848 50.37879081 -3.11832926 44.15882614 -3.1318512 37.93885803 C-3.14267951 32.92683183 -3.14868846 27.91482134 -3.15128899 22.90278435 C-3.15314334 20.98613169 -3.15676414 19.06947994 -3.1621418 17.15283394 C-3.16935149 14.47797379 -3.17040272 11.80317938 -3.16993713 9.12831116 C-3.17353241 8.32774292 -3.17712769 7.52717468 -3.18083191 6.7023468 C-3.16847485 0.18528556 -3.16847485 0.18528556 0 0 Z " fill="#171719" transform="translate(748.0564117431641,88.87974548339844)"/>
<path d="M0 0 C5.30471573 -0.81772298 9.75917626 -1.06396623 15 0 C18.51915829 3.08129067 20.52976752 6.77570458 22.74267578 10.82421875 C25.24770737 15.15913943 28.20277298 19.20698563 31.0625 23.3125 C32.20093368 24.97408673 33.33779228 26.63675436 34.47265625 28.30078125 C34.96000244 29.01403564 35.44734863 29.72729004 35.94946289 30.4621582 C36.29614014 30.969646 36.64281738 31.47713379 37 32 C43.17214446 23.72744897 49.18797427 15.39809349 54.82568359 6.74975586 C56.42781425 4.30141073 57.924452 2.075548 60 0 C63.0390625 -0.1953125 63.0390625 -0.1953125 66.625 -0.125 C68.40777344 -0.09792969 68.40777344 -0.09792969 70.2265625 -0.0703125 C71.14179687 -0.04710938 72.05703125 -0.02390625 73 0 C73 4.6598152 72.19975537 5.5293507 69.4375 9.125 C68.70015625 10.10339844 67.9628125 11.08179687 67.203125 12.08984375 C66.47609375 13.05019531 65.7490625 14.01054688 65 15 C63.31388561 17.35514601 61.65850833 19.72930194 60.0078125 22.109375 C58.38859389 24.44054576 56.75593882 26.76072034 55.1171875 29.078125 C54.09866243 30.53104261 53.08043387 31.98416813 52.0625 33.4375 C51.56516357 34.13641357 51.06782715 34.83532715 50.55541992 35.55541992 C50.09498291 36.21646729 49.6345459 36.87751465 49.16015625 37.55859375 C48.74386963 38.14954834 48.32758301 38.74050293 47.89868164 39.34936523 C46.76091531 41.12589696 46.76091531 41.12589696 47 44 C48.37721576 46.16291585 49.78640156 48.19642079 51.3125 50.25 C51.75964355 50.86335205 52.20678711 51.4767041 52.66748047 52.10864258 C54.10504161 54.07736784 55.55229158 56.03872846 57 58 C57.94466421 59.28988603 58.88868166 60.58024598 59.83203125 61.87109375 C65.11750764 69.10393456 65.11750764 69.10393456 70.47265625 76.28515625 C71.20355469 77.26355469 71.93445313 78.24195313 72.6875 79.25 C73.33074219 80.10078125 73.97398437 80.9515625 74.63671875 81.828125 C76 84 76 84 76 87 C70.96025237 87.8466776 65.95087785 88.53082986 61 87 C57.18597127 83.5738386 54.89395825 79.62081425 52.34228516 75.21337891 C49.83206225 71.07411356 46.91870764 67.21695877 44.0625 63.3125 C43.5061084 62.53471191 42.9497168 61.75692383 42.37646484 60.95556641 C41.85133301 60.2238623 41.32620117 59.4921582 40.78515625 58.73828125 C40.08724976 57.76435425 40.08724976 57.76435425 39.37524414 56.77075195 C38.02609833 55.03360397 36.58908604 53.51769274 35 52 C34.74089844 52.55171875 34.48179687 53.1034375 34.21484375 53.671875 C28.95660324 63.74876035 21.5681801 73.03230565 15.10986328 82.38110352 C14.06034729 83.91197473 13.02957056 85.45564416 12 87 C9.37302936 87.22137393 6.99106036 87.28162025 4.375 87.1875 C3.66859375 87.17396484 2.9621875 87.16042969 2.234375 87.14648438 C0.48925872 87.1111104 -1.25546608 87.05730221 -3 87 C-1.73175691 83.54554739 -0.27848575 80.72845293 1.875 77.75 C2.803125 76.45255859 2.803125 76.45255859 3.75 75.12890625 C4.4925 74.09636719 5.235 73.06382812 6 72 C7.96325136 69.23263597 9.9189988 66.45999146 11.875 63.6875 C12.38756348 62.96216064 12.90012695 62.23682129 13.42822266 61.48950195 C17.99502273 55.02238882 22.50949892 48.52029829 27 42 C24.48561324 38.2051385 21.93410789 34.44000032 19.3449707 30.69580078 C14.62523528 23.86764843 9.94752306 17.01092348 5.3125 10.125 C4.78333984 9.34608398 4.25417969 8.56716797 3.70898438 7.76464844 C3.22365234 7.04051758 2.73832031 6.31638672 2.23828125 5.5703125 C1.80555908 4.92852051 1.37283691 4.28672852 0.92700195 3.62548828 C0 2 0 2 0 0 Z " fill="#171719" transform="translate(808,89)"/>
<path d="M0 0 C5.58158662 -0.12384546 10.40120555 0.43692114 15.73242188 2.08398438 C16.45187988 2.30183594 17.17133789 2.5196875 17.91259766 2.74414062 C26.89475938 5.63867832 36.81306003 9.5258531 41.48242188 18.08398438 C43.12848014 19.11755584 44.7920563 20.1245877 46.48242188 21.08398438 C46.48242188 21.74398437 46.48242188 22.40398437 46.48242188 23.08398438 C47.12179688 23.35210937 47.76117188 23.62023437 48.41992188 23.89648438 C50.48242188 25.08398438 50.48242188 25.08398438 51.48242188 28.08398438 C52.47242188 28.41398437 53.46242187 28.74398437 54.48242188 29.08398438 C54.48242188 29.74398437 54.48242188 30.40398437 54.48242188 31.08398438 C55.14242187 31.08398438 55.80242187 31.08398438 56.48242188 31.08398438 C57.99023437 32.98242187 57.99023437 32.98242187 59.60742188 35.45898438 C60.14625 36.27109375 60.68507812 37.08320312 61.24023438 37.91992188 C62.48242188 40.08398438 62.48242188 40.08398438 62.48242188 42.08398438 C63.14242187 42.08398438 63.80242187 42.08398438 64.48242188 42.08398438 C66.95742188 47.52898437 66.95742188 47.52898437 69.48242188 53.08398438 C68.49242187 54.07398437 68.49242187 54.07398437 67.48242188 55.08398438 C65.35742188 54.70898438 65.35742188 54.70898438 63.48242188 54.08398438 C63.48242188 55.73398438 63.48242188 57.38398437 63.48242188 59.08398438 C62.49242187 59.57898438 62.49242187 59.57898438 61.48242188 60.08398438 C61.27488281 59.48972656 61.06734375 58.89546875 60.85351562 58.28320312 C56.62894026 46.91750456 50.82258619 38.75884808 41.48242188 31.08398438 C40.96164063 30.55804688 40.44085938 30.03210938 39.90429688 29.49023438 C38.33248719 27.84630328 38.33248719 27.84630328 35.48242188 26.08398438 C35.48242188 25.42398438 35.48242188 24.76398438 35.48242188 24.08398438 C34.86367187 23.77460937 34.24492187 23.46523437 33.60742188 23.14648438 C32.23242188 22.45898438 30.85742188 21.77148438 29.48242188 21.08398438 C29.48242188 20.42398438 29.48242188 19.76398438 29.48242188 19.08398438 C28.51304687 19.00148438 27.54367188 18.91898438 26.54492188 18.83398438 C22.61440009 18.28150139 19.43705668 16.80174574 15.86523438 15.13085938 C6.29501416 10.92623803 -5.02932215 8.11201238 -15.51757812 9.08398438 C-16.17757812 9.41398437 -16.83757812 9.74398437 -17.51757812 10.08398438 C-19.57829393 10.32867595 -21.64124964 10.55460748 -23.70507812 10.77148438 C-29.42756963 11.54671332 -34.42143333 12.91307028 -39.76757812 15.08398438 C-40.41106201 15.34526123 -41.0545459 15.60653809 -41.7175293 15.87573242 C-44.43507385 17.02932771 -46.41139475 17.977801 -48.51757812 20.08398438 C-49.50757813 20.08398438 -50.49757812 20.08398438 -51.51757812 20.08398438 C-51.60845703 20.95990234 -51.60845703 20.95990234 -51.70117188 21.85351562 C-52.86666364 25.03770605 -54.77028021 25.92791683 -57.58007812 27.77148438 C-62.45102582 31.14124273 -66.14359879 34.70680227 -69.86132812 39.29882812 C-71.51757812 41.08398438 -71.51757812 41.08398438 -74.51757812 42.08398438 C-74.84757812 42.74398437 -75.17757812 43.40398437 -75.51757812 44.08398438 C-78.18424479 44.08398438 -80.85091146 44.08398438 -83.51757812 44.08398438 C-84.17757812 42.76398438 -84.83757812 41.44398437 -85.51757812 40.08398438 C-74.75040255 24.82825918 -74.75040255 24.82825918 -69.51757812 23.08398438 C-69.51757812 22.42398438 -69.51757812 21.76398438 -69.51757812 21.08398438 C-67.67397522 19.69907693 -65.76535548 18.40009589 -63.83007812 17.14648438 C-62.77433594 16.45683594 -61.71859375 15.7671875 -60.63085938 15.05664062 C-57.94838525 13.35695501 -55.24915797 11.70303336 -52.51757812 10.08398438 C-51.86660156 9.67277344 -51.215625 9.2615625 -50.54492188 8.83789062 C-35.48122656 0.25017647 -16.82602669 0.56130267 0 0 Z " fill="#171719" transform="translate(143.517578125,50.916015625)"/>
<path d="M0 0 C15.6923231 -0.58541309 27.58253468 0.27988606 40 11 C45 16.58558559 45 16.58558559 45 20 C45.66 20 46.32 20 47 20 C47.64894237 22.06152389 48.2940264 24.12426258 48.9375 26.1875 C49.47697266 27.91033203 49.47697266 27.91033203 50.02734375 29.66796875 C52.91165854 39.54877404 54.18724495 51.7723362 49.14453125 61.109375 C48.76683594 61.73328125 48.38914062 62.3571875 48 63 C47.47986328 63.96679688 47.47986328 63.96679688 46.94921875 64.953125 C45.21295246 68.14410089 43.4044344 71.26768818 41 74 C40.34 74 39.68 74 39 74 C38.75121094 74.59683594 38.50242187 75.19367188 38.24609375 75.80859375 C35.18185553 81.19742649 28.64893323 84.0545885 22.9375 85.875 C11.93757175 88.46684845 0.61778718 87.77921239 -10 84 C-10 80.34076304 -9.24243223 78.86103423 -7 76 C-3.84139207 75.52620881 -2.04270565 75.98576478 1 77 C10.41064157 77.8713557 20.66741279 75.04938445 28 69 C28.86625 68.13375 29.7325 67.2675 30.625 66.375 C33 64 33 64 35.0078125 63.14453125 C38.46157516 61.16031074 39.03093542 57.97490956 40.234375 54.3359375 C42.32908221 45.20899895 42.01260545 36.40073612 37.875 27.953125 C37 26 37 26 37 23 C36.34 23 35.68 23 35 23 C35 22.01 35 21.02 35 20 C34.01 19.67 33.02 19.34 32 19 C32 18.34 32 17.68 32 17 C29.525 16.01 29.525 16.01 27 15 C27 14.34 27 13.68 27 13 C16.79365231 9.40971398 7.47027514 7.89769625 -3 11 C-3.66 10.67 -4.32 10.34 -5 10 C-4.42437172 6.66135596 -3.40936384 5.30897368 -1 3 C-0.67 2.01 -0.34 1.02 0 0 Z " fill="#171719" transform="translate(375,89)"/>
<path d="M0 0 C0 0.33 0 0.66 0 1 C-4.12352578 2.0632991 -8.12014462 2.13912968 -12.34863281 2.23925781 C-27.24903398 2.62368509 -42.02122052 4.083689 -55 12 C-56.2065625 12.70382813 -56.2065625 12.70382813 -57.4375 13.421875 C-61.01987651 15.62809468 -64.38680279 18.10768478 -67.79296875 20.57421875 C-70 22 -70 22 -72 22 C-72 22.66 -72 23.32 -72 24 C-74.41547663 26.55350387 -76.95206925 28.95446578 -79.5 31.375 C-82.38192537 34.40102164 -84.63700982 37.55678573 -87 41 C-86.34 42.32 -85.68 43.64 -85 45 C-84.01 44.505 -84.01 44.505 -83 44 C-81.32345271 44.27942455 -79.65391846 44.60828247 -78 45 C-77.67 44.01 -77.34 43.02 -77 42 C-76.34 42.33 -75.68 42.66 -75 43 C-75.79664063 44.35931641 -75.79664063 44.35931641 -76.609375 45.74609375 C-78.45115154 48.907469 -80.25547864 52.08838886 -82.03857422 55.28320312 C-82.78579584 56.61750034 -83.54811682 57.94334646 -84.31640625 59.265625 C-92.47816127 75.01301116 -91.3228118 96.93000235 -86.375 113.4375 C-85.6378908 115.31402342 -84.84183538 117.16806569 -84 119 C-83.45472656 120.19753906 -82.90945312 121.39507812 -82.34765625 122.62890625 C-76.58826545 134.58138604 -68.32121309 144.85592415 -57 152 C-55.98421875 152.65742188 -54.9684375 153.31484375 -53.921875 153.9921875 C-35.31406131 165.58049418 -13.47297259 167.47126931 7.70849609 162.64697266 C14.26389988 160.79615015 20.15464794 157.4223009 26 154 C27.27423828 153.29037109 27.27423828 153.29037109 28.57421875 152.56640625 C40.74239734 145.20433051 48.77068057 134.48880505 55 122 C55.62841797 120.83210938 55.62841797 120.83210938 56.26953125 119.640625 C63.41124561 105.41069226 63.55230864 87.84362644 60.4375 72.55078125 C59.99691747 69.98202773 59.925026 67.60066058 60 65 C65.21149176 70.21149176 65.39931229 79.67987044 65.51855469 86.68945312 C65.51243164 87.67880859 65.50630859 88.66816406 65.5 89.6875 C65.49468262 91.25081055 65.49468262 91.25081055 65.48925781 92.84570312 C65.23158591 104.95254813 61.94242049 115.4569959 56 126 C55.52433594 126.88171875 55.52433594 126.88171875 55.0390625 127.78125 C52.67192425 132.09891017 50.01858961 136.10760814 47 140 C46.34 140 45.68 140 45 140 C44.76023438 140.56332031 44.52046875 141.12664062 44.2734375 141.70703125 C42.73062285 144.48504414 40.86497894 146.43635838 38.625 148.6875 C37.85414063 149.47511719 37.08328125 150.26273438 36.2890625 151.07421875 C34.01605287 152.98649477 32.82392328 153.43397133 30 154 C29.67 154.66 29.34 155.32 29 156 C26.74501361 157.23688775 24.50263313 158.38780539 22.1875 159.5 C21.55779297 159.80808594 20.92808594 160.11617187 20.27929688 160.43359375 C18.52150966 161.29312034 16.76084094 162.14674679 15 163 C14.33871094 163.36867187 13.67742187 163.73734375 12.99609375 164.1171875 C-3.28517655 171.31790587 -24.52483304 169.14384907 -41 164 C-45.67586896 162.1689963 -50.02248445 159.99968148 -54.375 157.5 C-55.41398437 156.9121875 -56.45296875 156.324375 -57.5234375 155.71875 C-60 154 -60 154 -61 151 C-62.66330658 150.32499374 -64.33053595 149.65963019 -66 149 C-85.17775769 132.87623454 -91.53916601 109.97982834 -93.66796875 85.953125 C-93.77753906 84.64859375 -93.88710937 83.3440625 -94 82 C-96.0745356 81.8509288 -96.0745356 81.8509288 -98 83 C-98.99 82.67 -99.98 82.34 -101 82 C-101.99 82.495 -101.99 82.495 -103 83 C-102.21037615 61.79859961 -94.33533834 43.54464632 -80 28 C-79.33871094 27.23558594 -78.67742187 26.47117187 -77.99609375 25.68359375 C-63.5310161 9.90101377 -40.35114072 0.28832106 -19.20703125 -0.984375 C-12.78581882 -1.01565984 -6.39617118 -0.52760295 0 0 Z " fill="#151517" transform="translate(146,50)"/>
<path d="M0 0 C9.58251875 2.26954392 15.9118541 8.11791393 20.9375 16.25 C21.65769073 17.46191592 22.37528001 18.67538282 23.08984375 19.890625 C24.63026556 22.39814189 25.94120422 23.99602423 28 26 C30.58498229 33.21074006 30.19169352 40.41745628 30 48 C29.01 48.33 28.02 48.66 27 49 C26.9071875 50.918125 26.9071875 50.918125 26.8125 52.875 C26.06411393 59.6425483 23.14643954 65.42427255 18.8125 70.625 C17 72 17 72 15 72 C14.79375 72.5775 14.5875 73.155 14.375 73.75 C10.73825645 79.7010349 3.22875995 81.72680304 -3 84 C-4.093125 84.433125 -5.18625 84.86625 -6.3125 85.3125 C-15.40308562 87.00735495 -24.40866182 85.08357285 -33 82 C-33 80 -33 78 -33 76 C-32.34 76 -31.68 76 -31 76 C-30.67 75.01 -30.34 74.02 -30 73 C-29.38253906 73.2165625 -28.76507812 73.433125 -28.12890625 73.65625 C-19.26114006 76.57167998 -10.93821554 77.15874801 -2 74 C0.86678805 72.00917635 0.86678805 72.00917635 3 70 C3.66 70 4.32 70 5 70 C5 69.34 5 68.68 5 68 C5.99 67.67 6.98 67.34 8 67 C10.90538723 64.66824051 12.13447295 61.93218844 13.625 58.5625 C14.26308594 57.14130859 14.26308594 57.14130859 14.9140625 55.69140625 C17.9999124 48.04338258 18.52019557 38.00536008 16.10546875 30.0546875 C15.05332289 27.72149 15.05332289 27.72149 13.875 25.69921875 C13 24 13 24 13 21 C12.34 21 11.68 21 11 21 C10.7525 20.21625 10.505 19.4325 10.25 18.625 C8.82508536 15.63267926 8.02232813 15.13337305 5 14 C4.34 13.67 3.68 13.34 3 13 C3 12.34 3 11.68 3 11 C1.68 10.67 0.36 10.34 -1 10 C-1.9765625 3.9453125 -1.9765625 3.9453125 -2 2 C-1.34 1.34 -0.68 0.68 0 0 Z " fill="#171719" transform="translate(607,91)"/>
<path d="M0 0 C5.61 0 11.22 0 17 0 C17.9075 2.083125 18.815 4.16625 19.75 6.3125 C23.16004891 14.11631453 26.60768021 21.90341955 30.0625 29.6875 C30.5565332 30.80229736 31.05056641 31.91709473 31.55957031 33.06567383 C34.97083987 40.74328795 38.46016417 48.38085767 42 56 C42.43828125 54.94167969 42.8765625 53.88335937 43.328125 52.79296875 C47.49465242 42.78769523 51.79529303 32.84580219 56.1875 22.9375 C56.68604492 21.80916748 57.18458984 20.68083496 57.69824219 19.51831055 C60.63274364 12.92250671 63.70316005 6.4226388 67 0 C69.64590014 -0.02684679 72.29153096 -0.04676357 74.9375 -0.0625 C75.69224609 -0.07087891 76.44699219 -0.07925781 77.22460938 -0.08789062 C79.14994313 -0.09652441 81.07535581 -0.05224333 83 0 C84.78857062 1.78857062 84.11990579 4.20123134 84.12442017 6.58209229 C84.11902725 7.78294464 84.11902725 7.78294464 84.11352539 9.00805664 C84.11367142 9.84700974 84.11381744 10.68596283 84.1139679 11.55033875 C84.1132685 14.33697044 84.10547485 17.12353616 84.09765625 19.91015625 C84.09579217 21.83686791 84.09436822 23.76358005 84.09336853 25.69029236 C84.08954259 30.77187397 84.07971166 35.8534272 84.06866455 40.93499756 C84.05845206 46.11616634 84.05387126 51.29733969 84.04882812 56.47851562 C84.03808946 66.65235625 84.02101213 76.82617577 84 87 C79.38 87 74.76 87 70 87 C69.67 66.87 69.34 46.74 69 26 C61.28461543 42.87475381 61.28461543 42.87475381 53.875 59.875 C53.29878906 61.22851562 53.29878906 61.22851562 52.7109375 62.609375 C51.80489854 64.73856657 50.9020338 66.86910855 50 69 C44.39 69 38.78 69 33 69 C27.54474198 58.43769192 22.76262632 47.6900125 18.16918945 36.72729492 C16.48594145 32.80088787 14.73502411 28.90380424 13 25 C12.67 45.46 12.34 65.92 12 87 C8.04 87 4.08 87 0 87 C0.33 86.01 0.66 85.02 1 84 C3.97 84.33 6.94 84.66 10 85 C9.99777939 84.2277005 9.99555878 83.455401 9.99327087 82.65969849 C9.97325496 75.3905466 9.95801921 68.12140802 9.94818783 60.85223579 C9.94296356 57.1148575 9.93587416 53.37750193 9.92456055 49.64013672 C9.9137155 46.03510184 9.90771972 42.43008884 9.90512276 38.82503891 C9.90327143 37.44789154 9.8996564 36.07074541 9.89426994 34.69360733 C9.88703819 32.76856906 9.88659176 30.84350888 9.88647461 28.91845703 C9.884254 27.82147491 9.88203339 26.7244928 9.87974548 25.5942688 C10 23 10 23 11 21 C14 22 14 22 16 25 C16 26.32 16 27.64 16 29 C16.66 29 17.32 29 18 29 C20.09155971 33.60588149 22.10633279 38.22131016 23.9375 42.9375 C25.65673408 47.30327159 27.68491805 51.43652166 29.84765625 55.59765625 C30.94841621 57.89246092 31.73541248 60.13914635 32.5 62.5625 C33.59182626 66.10752952 33.59182626 66.10752952 36.1875 67 C37.115625 67 38.04375 67 39 67 C39.69351563 67.01160156 40.38703125 67.02320313 41.1015625 67.03515625 C43.06759291 67.05947111 45.0341016 67.03332031 47 67 C49.72934829 62.51607066 51.84161649 58.09097253 53.73828125 53.203125 C57.78920707 42.91904087 61.9347844 32.59837538 67.08984375 22.8125 C68.12961916 20.84968666 68.12961916 20.84968666 69 18 C69.66 18 70.32 18 71 18 C73.14794774 27.35891514 73.14794774 27.35891514 73.0625 32.125 C73.01526193 35.05376033 73.15069601 37.51296228 73.5625 40.375 C74 44 74 44 73 46 C72.91301772 48.91699274 72.88448077 51.80982548 72.90234375 54.7265625 C72.9037587 55.58937836 72.90517365 56.45219421 72.90663147 57.34115601 C72.91223812 60.1024723 72.92479173 62.86370812 72.9375 65.625 C72.94251414 67.4947905 72.9470772 69.36458226 72.95117188 71.234375 C72.96220971 75.82294777 72.9794788 80.41146023 73 85 C75.97 85 78.94 85 82 85 C82 57.61 82 30.22 82 2 C77.71 2.33 73.42 2.66 69 3 C66.17425206 7.23862192 64.69330488 10.31968535 63 15 C62.14243438 17.03012459 61.25193431 19.04347584 60.35644531 21.05712891 C59.44247232 23.11381096 58.55071492 25.17918532 57.66015625 27.24609375 C56.33487687 30.28492681 54.90195076 33.2436921 53.375 36.1875 C50.88983691 41.0183946 48.99642713 46.0259462 47.11328125 51.1171875 C45.30172731 55.80815877 45.30172731 55.80815877 44 58 C41.875 58.75 41.875 58.75 40 59 C37 53.375 37 53.375 37 50 C36.34 50 35.68 50 35 50 C34.731875 48.96875 34.46375 47.9375 34.1875 46.875 C32.99907103 42.72796465 31.12463653 39.10384591 29.09375 35.3046875 C26.40661583 30.12545309 24.35488899 24.78830909 22.296875 19.33203125 C19.96803989 13.3486085 17.56900999 7.35351499 14 2 C10.04 2 6.08 2 2 2 C1.67 28.73 1.34 55.46 1 83 C0.67 83 0.34 83 0 83 C0 55.61 0 28.22 0 0 Z " fill="#050506" transform="translate(446,89)"/>
<path d="M0 0 C1.35568336 0.00333092 1.35568336 0.00333092 2.73875427 0.00672913 C3.75973709 0.00680466 4.78071991 0.00688019 5.8326416 0.00695801 C6.94304306 0.01211929 8.05344452 0.01728058 9.19749451 0.02259827 C10.89336952 0.02472069 10.89336952 0.02472069 12.62350464 0.02688599 C16.25105891 0.03250433 19.8785525 0.04505994 23.50608826 0.05775452 C25.95856133 0.06276715 28.41103536 0.06733047 30.86351013 0.07142639 C36.89022371 0.08247971 42.91690165 0.09923568 48.94358826 0.12025452 C48.94358826 3.09025452 48.94358826 6.06025452 48.94358826 9.12025452 C48.28358826 8.79025452 47.62358826 8.46025452 46.94358826 8.12025452 C46.44858826 5.15025452 46.44858826 5.15025452 45.94358826 2.12025452 C31.09358826 2.12025452 16.24358826 2.12025452 0.94358826 2.12025452 C0.61358826 29.51025452 0.28358826 56.90025452 -0.05641174 85.12025452 C15.78358826 85.12025452 31.62358826 85.12025452 47.94358826 85.12025452 C47.44858826 81.65525452 47.44858826 81.65525452 46.94358826 78.12025452 C43.11568882 77.22293811 39.58201316 77.00365728 35.65452576 77.02259827 C34.46601013 77.02582092 33.27749451 77.02904358 32.05296326 77.03236389 C30.82061951 77.0407428 29.58827576 77.0491217 28.31858826 77.05775452 C27.07851013 77.06226624 25.83843201 77.06677795 24.56077576 77.07142639 C22.26828555 77.08014782 19.9758016 77.09092033 17.68333435 77.10438538 C11.96904059 77.13748367 11.96904059 77.13748367 10.27659607 75.99183655 C8.38851725 73.34091856 8.58715551 71.40739399 8.61546326 68.17494202 C8.62319763 66.43664124 8.62319763 66.43664124 8.63108826 64.66322327 C8.65171326 63.45279358 8.67233826 62.24236389 8.69358826 60.99525452 C8.69874451 59.77709045 8.70390076 58.55892639 8.70921326 57.30384827 C8.78974616 48.27409661 8.78974616 48.27409661 9.94358826 47.12025452 C12.46452902 47.03177709 14.95789719 47.0049815 17.47874451 47.02259827 C18.60862038 47.02472069 18.60862038 47.02472069 19.76132202 47.02688599 C22.17628385 47.03250076 24.59115427 47.04505569 27.00608826 47.05775452 C28.63955046 47.06276762 30.27301412 47.06733085 31.90647888 47.07142639 C35.91888411 47.08247498 39.93122066 47.09974945 43.94358826 47.12025452 C43.94358826 44.48025452 43.94358826 41.84025452 43.94358826 39.12025452 C42.40650208 39.12810974 42.40650208 39.12810974 40.83836365 39.13612366 C37.04963549 39.1541742 33.26091117 39.16568671 29.47215271 39.17518616 C27.82989361 39.18022626 26.18763902 39.1870583 24.5453949 39.19569397 C22.18983347 39.20777377 19.83433117 39.2134859 17.47874451 39.21791077 C16.7401973 39.22307205 16.00165009 39.22823334 15.24072266 39.23355103 C13.47460738 39.23374702 11.7086168 39.1822017 9.94358826 39.12025452 C7.48844931 36.66511557 8.75808213 30.16811377 8.75608826 26.87025452 C8.74384216 25.81966858 8.73159607 24.76908264 8.71897888 23.68666077 C8.71607849 22.1610553 8.71607849 22.1610553 8.71311951 20.60462952 C8.70901062 19.67360413 8.70490173 18.74257874 8.70066833 17.78334045 C8.96748904 14.85823468 9.60100418 12.72932945 10.94358826 10.12025452 C16.31690026 8.25127643 22.52804315 9.27579 28.13108826 9.62025452 C30.10343183 9.74009957 32.07608945 9.85491258 34.04905701 9.96400452 C35.35072815 10.04424866 35.35072815 10.04424866 36.67869568 10.12611389 C39.11252061 10.23826175 39.11252061 10.23826175 41.94358826 9.12025452 C42.43858826 10.11025452 42.43858826 10.11025452 42.94358826 11.12025452 C44.92358826 10.79025452 46.90358826 10.46025452 48.94358826 10.12025452 C48.61358826 11.11025452 48.28358826 12.10025452 47.94358826 13.12025452 C35.73358826 13.12025452 23.52358826 13.12025452 10.94358826 13.12025452 C10.94358826 21.04025452 10.94358826 28.96025452 10.94358826 37.12025452 C22.49358826 37.12025452 34.04358826 37.12025452 45.94358826 37.12025452 C45.94358826 41.08025452 45.94358826 45.04025452 45.94358826 49.12025452 C34.39358826 49.12025452 22.84358826 49.12025452 10.94358826 49.12025452 C10.94358826 57.70025452 10.94358826 66.28025452 10.94358826 75.12025452 C23.81358826 75.12025452 36.68358826 75.12025452 49.94358826 75.12025452 C49.94358826 79.08025452 49.94358826 83.04025452 49.94358826 87.12025452 C32.45358826 87.12025452 14.96358826 87.12025452 -3.05641174 87.12025452 C-3.09652055 65.6976938 -3.09652055 65.6976938 -3.10523987 56.59877014 C-3.11122848 50.37879081 -3.11832926 44.15882614 -3.1318512 37.93885803 C-3.14267951 32.92683183 -3.14868846 27.91482134 -3.15128899 22.90278435 C-3.15314334 20.98613169 -3.15676414 19.06947994 -3.1621418 17.15283394 C-3.16935149 14.47797379 -3.17040272 11.80317938 -3.16993713 9.12831116 C-3.17353241 8.32774292 -3.17712769 7.52717468 -3.18083191 6.7023468 C-3.16847485 0.18528556 -3.16847485 0.18528556 0 0 Z " fill="#060607" transform="translate(748.0564117431641,88.87974548339844)"/>
<path d="M0 0 C0.66 0 1.32 0 2 0 C1.80446533 0.54889893 1.60893066 1.09779785 1.4074707 1.66333008 C-5.21314599 20.78435494 -6.62696034 43.22670421 2 62 C2.54527344 63.19753906 3.09054688 64.39507812 3.65234375 65.62890625 C9.41173455 77.58138604 17.67878691 87.85592415 29 95 C30.01578125 95.65742188 31.0315625 96.31484375 32.078125 96.9921875 C50.68593869 108.58049418 72.52702741 110.47126931 93.70849609 105.64697266 C100.26389988 103.79615015 106.15464794 100.4223009 112 97 C112.84949219 96.52691406 113.69898438 96.05382812 114.57421875 95.56640625 C126.74239734 88.20433051 134.77068057 77.48880505 141 65 C141.62841797 63.83210938 141.62841797 63.83210938 142.26953125 62.640625 C149.41124561 48.41069226 149.55230864 30.84362644 146.4375 15.55078125 C145.99691747 12.98202773 145.925026 10.60066058 146 8 C151.21149176 13.21149176 151.39931229 22.67987044 151.51855469 29.68945312 C151.51243164 30.67880859 151.50630859 31.66816406 151.5 32.6875 C151.49468262 34.25081055 151.49468262 34.25081055 151.48925781 35.84570312 C151.23158591 47.95254813 147.94242049 58.4569959 142 69 C141.52433594 69.88171875 141.52433594 69.88171875 141.0390625 70.78125 C138.67192425 75.09891017 136.01858961 79.10760814 133 83 C132.34 83 131.68 83 131 83 C130.76023438 83.56332031 130.52046875 84.12664062 130.2734375 84.70703125 C128.73062285 87.48504414 126.86497894 89.43635838 124.625 91.6875 C123.85414063 92.47511719 123.08328125 93.26273437 122.2890625 94.07421875 C120.01605287 95.98649477 118.82392328 96.43397133 116 97 C115.67 97.66 115.34 98.32 115 99 C112.74501361 100.23688775 110.50263313 101.38780539 108.1875 102.5 C107.55779297 102.80808594 106.92808594 103.11617188 106.27929688 103.43359375 C104.52150966 104.29312034 102.76084094 105.14674679 101 106 C100.33871094 106.36867188 99.67742187 106.73734375 98.99609375 107.1171875 C82.71482345 114.31790587 61.47516696 112.14384907 45 107 C40.32413104 105.1689963 35.97751555 102.99968148 31.625 100.5 C30.58601563 99.9121875 29.54703125 99.324375 28.4765625 98.71875 C26 97 26 97 25 94 C23.33669342 93.32499374 21.66946405 92.65963019 20 92 C5.88591391 80.13353379 -2.72730878 62.98008668 -6 45 C-6.13631836 44.26136719 -6.27263672 43.52273437 -6.41308594 42.76171875 C-8.90630402 28.32063111 -8.41943472 12.62915208 0 0 Z " fill="#030305" transform="translate(60,107)"/>
<path d="M0 0 C5.30471573 -0.81772298 9.75917626 -1.06396623 15 0 C18.51915829 3.08129067 20.52976752 6.77570458 22.74267578 10.82421875 C25.24770737 15.15913943 28.20277298 19.20698563 31.0625 23.3125 C32.20093368 24.97408673 33.33779228 26.63675436 34.47265625 28.30078125 C34.96000244 29.01403564 35.44734863 29.72729004 35.94946289 30.4621582 C36.29614014 30.969646 36.64281738 31.47713379 37 32 C43.17214446 23.72744897 49.18797427 15.39809349 54.82568359 6.74975586 C56.42781425 4.30141073 57.924452 2.075548 60 0 C63.0390625 -0.1953125 63.0390625 -0.1953125 66.625 -0.125 C68.40777344 -0.09792969 68.40777344 -0.09792969 70.2265625 -0.0703125 C71.14179687 -0.04710938 72.05703125 -0.02390625 73 0 C73 4.6598152 72.19975537 5.5293507 69.4375 9.125 C68.70015625 10.10339844 67.9628125 11.08179687 67.203125 12.08984375 C66.47609375 13.05019531 65.7490625 14.01054688 65 15 C63.31388561 17.35514601 61.65850833 19.72930194 60.0078125 22.109375 C58.38859389 24.44054576 56.75593882 26.76072034 55.1171875 29.078125 C54.09866243 30.53104261 53.08043387 31.98416813 52.0625 33.4375 C51.56516357 34.13641357 51.06782715 34.83532715 50.55541992 35.55541992 C50.09498291 36.21646729 49.6345459 36.87751465 49.16015625 37.55859375 C48.74386963 38.14954834 48.32758301 38.74050293 47.89868164 39.34936523 C46.76091531 41.12589696 46.76091531 41.12589696 47 44 C48.26551653 45.90109961 49.61011354 47.75033901 51 49.5625 C55 54.79166667 55 54.79166667 55 57 C54.01 57 53.02 57 52 57 C51.4225 55.96875 50.845 54.9375 50.25 53.875 C48.84344532 51.37445834 47.4072222 49.19894891 45.6875 46.875 C44 44 44 44 44.12109375 41.6953125 C45.26207209 38.19631227 47.1001596 35.88588167 49.375 33 C52.17364047 29.42649164 54.69771915 25.90807338 57 22 C57.96017888 20.69415672 58.93891097 19.40171065 59.9375 18.125 C63.54698466 13.37803507 66.41750925 8.38018907 69 3 C63.85580362 2.51878309 63.85580362 2.51878309 59.1875 4.125 C57.9079237 6.06899132 57.9079237 6.06899132 56.75 8.5625 C52.08915261 17.71773594 45.19126542 25.82921434 39 34 C34.44742226 33.50265957 34.44742226 33.50265957 32.41796875 31.22265625 C32.01191406 30.50980469 31.60585938 29.79695313 31.1875 29.0625 C30.76855469 28.35222656 30.34960938 27.64195313 29.91796875 26.91015625 C29 25 29 25 29 23 C28.01 22.67 27.02 22.34 26 22 C24.5 19.890625 24.5 19.890625 23 17.25 C22.505 16.38890625 22.01 15.5278125 21.5 14.640625 C21.005 13.76921875 20.51 12.8978125 20 12 C17.95098731 8.42880148 17.95098731 8.42880148 15.3125 5.3125 C14.6628125 4.6628125 14.6628125 4.6628125 14 4 C14 3.34 14 2.68 14 2 C10.37 2 6.74 2 3 2 C3.495 2.78375 3.99 3.5675 4.5 4.375 C6 7 6 7 6 9 C6.66 9 7.32 9 8 9 C10.29648649 11.5614657 11 12.47967572 11 16 C11.99 16.33 12.98 16.66 14 17 C14.391875 17.804375 14.78375 18.60875 15.1875 19.4375 C16.85006243 22.70529512 18.56336195 25.06026624 20.875 27.875 C23.38236837 30.96277772 25.86944001 34.03450211 28.125 37.3125 C28.54007813 37.90675781 28.95515625 38.50101563 29.3828125 39.11328125 C30 41 30 41 29.4296875 43.296875 C27.59925372 46.75769516 25.35691515 49.82601538 23 52.9375 C22.00968465 54.26638188 21.02011921 55.59582289 20.03125 56.92578125 C19.52851562 57.59947754 19.02578125 58.27317383 18.5078125 58.96728516 C16.13786716 62.16226005 13.81462766 65.38982129 11.5 68.625 C11.09136719 69.19210693 10.68273437 69.75921387 10.26171875 70.34350586 C8.01708014 73.48196482 5.93931623 76.66483374 4 80 C3 81.66666667 2 83.33333333 1 85 C4.62505668 85.38627653 7.55837859 85.25948698 11 84 C15.00863086 79.62104181 18.11958828 74.64123517 20 69 C20.99 69 21.98 69 23 69 C20.46839254 75.82377443 17.35728587 82.02843871 12 87 C7.09949599 88.53979661 1.9951747 87.77000717 -3 87 C-1.73175691 83.54554739 -0.27848575 80.72845293 1.875 77.75 C2.803125 76.45255859 2.803125 76.45255859 3.75 75.12890625 C4.4925 74.09636719 5.235 73.06382812 6 72 C7.96325136 69.23263597 9.9189988 66.45999146 11.875 63.6875 C12.38756348 62.96216064 12.90012695 62.23682129 13.42822266 61.48950195 C17.99502273 55.02238882 22.50949892 48.52029829 27 42 C24.48561324 38.2051385 21.93410789 34.44000032 19.3449707 30.69580078 C14.62523528 23.86764843 9.94752306 17.01092348 5.3125 10.125 C4.78333984 9.34608398 4.25417969 8.56716797 3.70898438 7.76464844 C3.22365234 7.04051758 2.73832031 6.31638672 2.23828125 5.5703125 C1.80555908 4.92852051 1.37283691 4.28672852 0.92700195 3.62548828 C0 2 0 2 0 0 Z " fill="#040405" transform="translate(808,89)"/>
<path d="M0 0 C48.6 0 48.6 0 57.125 6.1875 C57.87007812 6.71730469 58.61515625 7.24710937 59.3828125 7.79296875 C59.91648437 8.19128906 60.45015625 8.58960937 61 9 C60.01 9.33 59.02 9.66 58 10 C55.79296875 8.85546875 55.79296875 8.85546875 53.1875 7.1875 C37.82380097 -0.72713283 19.70070445 2 3 2 C3 29.39 3 56.78 3 85 C17.19 84.67 31.38 84.34 46 84 C46 83.34 46 82.68 46 82 C46.845625 81.9175 47.69125 81.835 48.5625 81.75 C52.71278218 80.84448389 55.36315577 79.16811868 59 77 C59.66 77 60.32 77 61 77 C61.495 75.515 61.495 75.515 62 74 C62.66 74 63.32 74 64 74 C64.226875 73.46375 64.45375 72.9275 64.6875 72.375 C66.43382056 69.21499137 68.6402849 66.7323017 71 64 C71.33 64.66 71.66 65.32 72 66 C62.77598773 79.45168457 52.99653272 84.80069346 37 88 C24.79 88 12.58 88 0 88 C0 58.96 0 29.92 0 0 Z " fill="#080808" transform="translate(653,89)"/>
<path d="M0 0 C6.2383413 5.51320077 11.19783625 11.23411561 14.28515625 19.01953125 C13.79015625 20.50453125 13.79015625 20.50453125 13.28515625 22.01953125 C11.40620691 19.20110724 9.55629705 16.36760798 7.72265625 13.51953125 C7.10261719 12.56046875 6.48257813 11.60140625 5.84375 10.61328125 C4.28515625 8.01953125 4.28515625 8.01953125 3.28515625 5.01953125 C1.47636442 3.95555636 1.47636442 3.95555636 -0.71484375 3.01953125 C-3.15070635 1.518028 -5.5698075 -0.00747273 -7.984375 -1.54296875 C-14.36464465 -4.90196622 -20.30427449 -5.27240298 -27.33984375 -5.16796875 C-28.17257812 -5.16732422 -29.0053125 -5.16667969 -29.86328125 -5.16601562 C-36.96173161 -5.11515093 -42.19630178 -3.95383877 -48.71484375 -0.98046875 C-50.26171875 -0.29984375 -50.26171875 -0.29984375 -51.83984375 0.39453125 C-56.09791526 2.80126732 -58.89053756 5.6456876 -61.40234375 9.83203125 C-61.83546875 10.55390625 -62.26859375 11.27578125 -62.71484375 12.01953125 C-63.37484375 12.01953125 -64.03484375 12.01953125 -64.71484375 12.01953125 C-64.81796875 12.70015625 -64.92109375 13.38078125 -65.02734375 14.08203125 C-65.85195827 17.60538419 -67.29095799 20.69713115 -68.71484375 24.01953125 C-71.77071303 35.75078781 -70.45654643 49.55680665 -64.80078125 60.23046875 C-63.31979043 62.67037449 -61.52659501 64.81954758 -59.71484375 67.01953125 C-59.71484375 67.67953125 -59.71484375 68.33953125 -59.71484375 69.01953125 C-58.72484375 69.34953125 -57.73484375 69.67953125 -56.71484375 70.01953125 C-55.69287383 70.99706769 -54.6950475 72.00011935 -53.71484375 73.01953125 C-50.52181326 75.88224824 -47.95532295 76.53765861 -43.71484375 77.01953125 C-43.71484375 77.67953125 -43.71484375 78.33953125 -43.71484375 79.01953125 C-26.29428574 81.697867 -26.29428574 81.697867 -9.71484375 77.01953125 C-8.81507813 76.56964844 -7.9153125 76.11976563 -6.98828125 75.65625 C-1.95723201 72.90327173 1.70036413 69.94445555 5.12890625 65.33984375 C5.51046875 64.90414062 5.89203125 64.4684375 6.28515625 64.01953125 C6.94515625 64.01953125 7.60515625 64.01953125 8.28515625 64.01953125 C8.49011719 63.40464844 8.69507813 62.78976563 8.90625 62.15625 C10.03255208 58.77734375 11.15885417 55.3984375 12.28515625 52.01953125 C12.95704122 49.68769518 13.62431042 47.35451983 14.28515625 45.01953125 C14.94515625 45.01953125 15.60515625 45.01953125 16.28515625 45.01953125 C15.87029994 55.80579523 10.29458533 65.0319527 2.99609375 72.75390625 C-9.27082526 83.00579822 -23.31714684 84.33892762 -38.71484375 83.01953125 C-50.71163969 80.18814096 -60.69229213 72.00512258 -67.19140625 61.671875 C-73.98842607 49.13117469 -74.25512262 34.73482613 -70.74609375 21.12109375 C-67.20825759 10.48078349 -59.64059652 1.35316082 -49.71484375 -3.91796875 C-34.20470556 -10.80608525 -13.74386076 -10.61517701 0 0 Z " fill="#050506" transform="translate(619.71484375,94.98046875)"/>
<path d="M0 0 C44.90941358 0 44.90941358 0 53.4609375 8.20703125 C59.94716448 15.76332106 60.8866289 23.36755335 60.4140625 32.99609375 C59.77271538 40.70479944 56.71289937 46.25522123 51.05859375 51.49609375 C42.69761769 57.60420719 33.09817649 58.15936857 23.125 58.0625 C20.11375 58.041875 17.1025 58.02125 14 58 C14 67.57 14 77.14 14 87 C9.38 87 4.76 87 0 87 C0 58.29 0 29.58 0 0 Z M2 2 C2 29.39 2 56.78 2 85 C5.3 85 8.6 85 12 85 C12.02897435 80.72918086 12.04678996 76.45838691 12.0625 72.1875 C12.07087891 70.97255859 12.07925781 69.75761719 12.08789062 68.50585938 C12.09111328 67.34248047 12.09433594 66.17910156 12.09765625 64.98046875 C12.10289307 63.90692139 12.10812988 62.83337402 12.11352539 61.72729492 C12.12194588 58.90500635 12.12194588 58.90500635 11 56 C11.92941406 56.0721875 12.85882813 56.144375 13.81640625 56.21875 C15.05261719 56.3115625 16.28882813 56.404375 17.5625 56.5 C19.38974609 56.63921875 19.38974609 56.63921875 21.25390625 56.78125 C27.38278489 57.13914072 32.29705779 57.20966862 38.125 55.125 C39.11757813 54.77695313 40.11015625 54.42890625 41.1328125 54.0703125 C42.07898438 53.71710938 43.02515625 53.36390625 44 53 C44.89203125 52.67128906 45.7840625 52.34257812 46.703125 52.00390625 C51.28382895 50.00179585 53.58909624 46.80763842 55.8125 42.4375 C57.21768017 38.97601222 57.21768017 38.97601222 57 35 C57.66 34.67 58.32 34.34 59 34 C58.42659619 21.1365208 58.42659619 21.1365208 53 10 C46.70134502 5.11063312 41.29317545 1.79507833 33.25 2 C29.54702579 2.04299535 26.08412977 1.75517301 22.4140625 1.2265625 C15.93814145 0.61878997 8.18057519 -0.06019173 2 2 Z " fill="#050505" transform="translate(270,89)"/>
<path d="M0 0 C3.81275005 3.60958397 6.8622288 7.35290853 9.8125 11.6875 C10.42254883 12.55858398 10.42254883 12.55858398 11.04492188 13.44726562 C14 17.74330357 14 17.74330357 14 20 C14.66 19.67 15.32 19.34 16 19 C15.67 17.68 15.34 16.36 15 15 C15.66 15 16.32 15 17 15 C17.66 12.69 18.32 10.38 19 8 C23.56282947 12.22958911 27.04097469 16.99331351 30.625 22.0625 C31.76279209 23.65771526 32.9008054 25.25277276 34.0390625 26.84765625 C34.53615723 27.54898682 35.03325195 28.25031738 35.54541016 28.97290039 C36.54882945 30.37125393 37.59913693 31.73672488 38.68505859 33.07202148 C40 35 40 35 40 38 C34.96025237 38.8466776 29.95087785 39.53082986 25 38 C21.18597127 34.5738386 18.89395825 30.62081425 16.34228516 26.21337891 C13.83206225 22.07411356 10.91870764 18.21695877 8.0625 14.3125 C7.5061084 13.53471191 6.9497168 12.75692383 6.37646484 11.95556641 C5.85133301 11.2238623 5.32620117 10.4921582 4.78515625 9.73828125 C4.08724976 8.76435425 4.08724976 8.76435425 3.37524414 7.77075195 C2.02609833 6.03360397 0.58908604 4.51769274 -1 3 C-1.37318359 3.79664063 -1.37318359 3.79664063 -1.75390625 4.609375 C-3.31728207 7.60870416 -5.09708963 10.41227228 -6.9375 13.25 C-7.62714844 14.32765625 -8.31679688 15.4053125 -9.02734375 16.515625 C-9.67832031 17.33546875 -10.32929687 18.1553125 -11 19 C-11.99 19 -12.98 19 -14 19 C-3.02766798 1.51383399 -3.02766798 1.51383399 0 0 Z " fill="#171619" transform="translate(844,138)"/>
<path d="M0 0 C3.46283965 0.04567294 6.92148752 0.11685852 10.3828125 0.23046875 C11.39601563 0.24851562 12.40921875 0.2665625 13.453125 0.28515625 C21.9689258 0.67120589 30.92103173 2.45023886 37.58203125 8.09375 C39.34133604 10.05913387 40.87022952 12.07141195 42.3828125 14.23046875 C42.86363281 14.80925781 43.34445312 15.38804688 43.83984375 15.984375 C49.12121886 22.54423861 49.81390174 30.03977328 49.3828125 38.23046875 C48.8878125 39.22046875 48.8878125 39.22046875 48.3828125 40.23046875 C48.2796875 41.09671875 48.1765625 41.96296875 48.0703125 42.85546875 C46.6698849 49.73029516 43.17426968 55.18682961 38.3828125 60.23046875 C37.7228125 60.23046875 37.0628125 60.23046875 36.3828125 60.23046875 C36.3828125 60.89046875 36.3828125 61.55046875 36.3828125 62.23046875 C30.71958258 65.31846736 25.91366993 67.78769875 19.3828125 68.23046875 C17.11176894 68.39424593 14.84095088 68.56116677 12.5703125 68.73046875 C10.89001953 68.83875 10.89001953 68.83875 9.17578125 68.94921875 C6.43046664 69.0585799 6.43046664 69.0585799 4.3828125 70.23046875 C4.3828125 69.57046875 4.3828125 68.91046875 4.3828125 68.23046875 C3.2896875 68.45734375 2.1965625 68.68421875 1.0703125 68.91796875 C-2.6171875 69.23046875 -2.6171875 69.23046875 -4.32537842 68.0846405 C-6.07282102 65.57648449 -5.98515006 63.92181586 -5.97363281 60.8762207 C-5.97663391 59.78110672 -5.97963501 58.68599274 -5.98272705 57.55769348 C-5.97038025 56.37334213 -5.95803345 55.18899078 -5.9453125 53.96875 C-5.94343933 52.74898972 -5.94156616 51.52922943 -5.93963623 50.27250671 C-5.93290646 47.68758418 -5.91897383 45.10267198 -5.8984375 42.51782227 C-5.86744906 38.57623744 -5.85748207 34.63505363 -5.8515625 30.69335938 C-5.84238524 28.18098475 -5.83200719 25.66861417 -5.8203125 23.15625 C-5.81606262 21.98201981 -5.81181274 20.80778961 -5.80743408 19.59797668 C-5.64223555 0.49685358 -5.64223555 0.49685358 0 0 Z M-2.6171875 4.23046875 C-2.6171875 24.69046875 -2.6171875 45.15046875 -2.6171875 66.23046875 C20.64263795 67.26722755 20.64263795 67.26722755 39.43359375 56.609375 C45.68062021 48.98524852 47.23024163 40.59778842 46.86328125 30.91796875 C45.78191599 22.61871013 42.66355493 15.2339265 36.3203125 9.62890625 C25.47445644 1.80064724 10.08918718 1.68919381 -2.6171875 4.23046875 Z " fill="#060608" transform="translate(669.6171875,97.76953125)"/>
<path d="M0 0 C10.74454366 9.43946597 16.51076954 19.99576143 17.515625 34.484375 C17.63316408 48.49503301 13.80580394 60.58128556 4.34765625 71.0625 C-5.59352622 81.00368247 -17.21677034 83.3588633 -30.65332031 83.37939453 C-37.40882104 83.28514797 -42.79335966 82.63803972 -48.65234375 79.0625 C-49.79316406 78.42634766 -49.79316406 78.42634766 -50.95703125 77.77734375 C-56.93962668 74.16160005 -61.2594403 69.44889388 -65.65234375 64.0625 C-65.15734375 63.0725 -65.15734375 63.0725 -64.65234375 62.0625 C-63.15234375 63.4375 -63.15234375 63.4375 -61.65234375 65.0625 C-61.65234375 65.7225 -61.65234375 66.3825 -61.65234375 67.0625 C-60.33234375 67.7225 -59.01234375 68.3825 -57.65234375 69.0625 C-57.65234375 69.7225 -57.65234375 70.3825 -57.65234375 71.0625 C-57.0903125 71.3409375 -56.52828125 71.619375 -55.94921875 71.90625 C-54.40951186 72.68134055 -52.8781797 73.47328092 -51.35546875 74.28125 C-39.01867134 80.72467285 -26.13979198 82.20582081 -12.65234375 78.4375 C-3.46819443 75.19069319 2.01949546 70.07995331 7.34765625 62.0625 C7.88390625 61.27875 8.42015625 60.495 8.97265625 59.6875 C9.42640625 58.82125 9.88015625 57.955 10.34765625 57.0625 C10.69957031 56.4025 11.05148437 55.7425 11.4140625 55.0625 C17.70033351 41.74524295 13.82299643 27.60701774 10.34765625 14.0625 C9.68765625 14.0625 9.02765625 14.0625 8.34765625 14.0625 C7.05859375 12.6015625 7.05859375 12.6015625 5.72265625 10.6875 C5.27664063 10.06101562 4.830625 9.43453125 4.37109375 8.7890625 C3.34765625 7.0625 3.34765625 7.0625 3.34765625 5.0625 C2.50654297 4.6603125 2.50654297 4.6603125 1.6484375 4.25 C-1.66923059 2.53765518 -4.77296087 0.50248911 -7.921875 -1.5 C-14.30214465 -4.85899747 -20.24177449 -5.22943423 -27.27734375 -5.125 C-28.11007812 -5.12435547 -28.9428125 -5.12371094 -29.80078125 -5.12304688 C-36.91908514 -5.07203992 -42.09894364 -3.86312505 -48.65234375 -0.9375 C-50.31655725 -0.26473284 -51.98220957 0.40456835 -53.65234375 1.0625 C-53.98234375 0.4025 -54.31234375 -0.2575 -54.65234375 -0.9375 C-37.99519451 -10.04850856 -15.83511901 -12.35911728 0 0 Z " fill="#040405" transform="translate(411.65234375,94.9375)"/>
<path d="M0 0 C3.0625 1.1875 3.0625 1.1875 6.0625 3.1875 C6.97 3.39375 7.8775 3.6 8.8125 3.8125 C16.48089857 7.05682247 19.96012723 14.35418563 23.1171875 21.671875 C27.14083754 32.37943956 26.46705127 46.0847247 21.9375 56.44921875 C21.64875 57.02285156 21.36 57.59648437 21.0625 58.1875 C19.94507055 54.83521164 20.21522495 53.45620332 20.9375 50.0625 C21.12054687 49.17304688 21.30359375 48.28359375 21.4921875 47.3671875 C22.0625 45.1875 22.0625 45.1875 23.0625 44.1875 C22.99577957 41.09201195 22.58307157 38.01444692 22.25 34.9375 C22.16685547 34.07769531 22.08371094 33.21789062 21.99804688 32.33203125 C21.53804269 27.97374343 21.01575571 24.17642727 19.0625 20.1875 C17.4125 20.8475 15.7625 21.5075 14.0625 22.1875 C14.0625 21.5275 14.0625 20.8675 14.0625 20.1875 C12.4125 20.5175 10.7625 20.8475 9.0625 21.1875 C5.0625 16.4375 5.0625 16.4375 5.0625 14.1875 C4.423125 13.919375 3.78375 13.65125 3.125 13.375 C1.0625 12.1875 1.0625 12.1875 0.0625 9.1875 C-0.700625 9.043125 -1.46375 8.89875 -2.25 8.75 C-4.9375 8.1875 -4.9375 8.1875 -7.9375 7.1875 C-7.9375 6.5275 -7.9375 5.8675 -7.9375 5.1875 C-7.2775 5.1875 -6.6175 5.1875 -5.9375 5.1875 C-5.81375 4.383125 -5.69 3.57875 -5.5625 2.75 C-5.35625 1.904375 -5.15 1.05875 -4.9375 0.1875 C-2.9375 -0.8125 -2.9375 -0.8125 0 0 Z " fill="#161618" transform="translate(704.9375,94.8125)"/>
<path d="M0 0 C0 0.66 0 1.32 0 2 C0.5775 2.2475 1.155 2.495 1.75 2.75 C4.32939979 4.18299988 6.06121592 5.78424676 8 8 C8 8.66 8 9.32 8 10 C8.66 10 9.32 10 10 10 C15.35182027 20.09200394 16.65734648 29.5948857 14.453125 40.7734375 C12.98444273 45.55481421 10.61790503 49.7571884 8 54 C7.34 54 6.68 54 6 54 C5.67 54.99 5.34 55.98 5 57 C4.01 57 3.02 57 2 57 C2 57.66 2 58.32 2 59 C-4.27129549 64.46548658 -11.54529912 65.60923677 -19.5625 66.3125 C-28.68183154 65.48346986 -36.79255319 61.71075331 -43 55 C-43.61875 54.484375 -44.2375 53.96875 -44.875 53.4375 C-45.24625 52.963125 -45.6175 52.48875 -46 52 C-45.6875 49.8125 -45.6875 49.8125 -45 48 C-44.525625 48.680625 -44.05125 49.36125 -43.5625 50.0625 C-37.46777662 57.04913412 -30.72532867 61.86738592 -21.375 62.8125 C-11.92096029 63.42730258 -4.22108793 61.2495744 3.05859375 55.08984375 C6.3861575 51.50785863 8.24675934 47.52306624 10 43 C10.433125 41.88625 10.86625 40.7725 11.3125 39.625 C13.30402264 29.12424428 12.1318023 19.90568081 6.609375 10.67578125 C1.94864215 4.04036949 -3.11827462 0.92955103 -11 -1 C-19.71852796 -1.81058746 -28.47416639 -1.95539044 -36 3 C-42.62826271 8.87917823 -46.66295485 15.17550199 -48 24 C-48.66 23.67 -49.32 23.34 -50 23 C-49.54177532 19.53058454 -49.10868317 16.32604951 -48 13 C-47.34 13 -46.68 13 -46 13 C-45.91621094 12.25878906 -45.83242188 11.51757812 -45.74609375 10.75390625 C-44.37523562 5.69393252 -40.13399621 2.9537372 -36 0 C-22.94647087 -6.74850103 -13.20049968 -5.63435962 0 0 Z " fill="#050507" transform="translate(610,102)"/>
<path d="M0 0 C3.70317919 1.24675244 7.35624257 2.59007475 11 4 C12.562054 4.58452658 14.1245111 5.16797791 15.6875 5.75 C16.780625 6.1625 17.87375 6.575 19 7 C19 7.66 19 8.32 19 9 C19.556875 9.2475 20.11375 9.495 20.6875 9.75 C25.52275435 12.363651 29.14631097 16.14631097 33 20 C35.0291107 21.76999047 37.07352057 23.51913309 39.1328125 25.25390625 C45.1245906 30.85709623 50.24870231 40.02186609 52 48 C51.71086842 49.34361148 51.38385477 50.68032413 51 52 C50.23816406 50.42412109 50.23816406 50.42412109 49.4609375 48.81640625 C39.72507192 28.86430263 27.14317989 12.56534769 5.5 4.76953125 C-18.9333174 -2.75134926 -38.72748432 0.63054564 -62 10 C-62 9.34 -62 8.68 -62 8 C-51.98935617 2.57949009 -41.40349884 -2.32566562 -29.890625 -2.859375 C-19.0760243 -3.66376679 -10.83601713 -3.39567168 0 0 Z " fill="#060607" transform="translate(154,63)"/>
<path d="M0 0 C1.01707031 -0.03738281 2.03414063 -0.07476562 3.08203125 -0.11328125 C10.3310105 -0.19703069 15.04960009 1.21836016 21 5.375 C21 6.365 21 7.355 21 8.375 C21.66 8.375 22.32 8.375 23 8.375 C23.99 11.345 24.98 14.315 26 17.375 C25.505 17.87 25.505 17.87 25 18.375 C25.061875 19.426875 25.12375 20.47875 25.1875 21.5625 C24.90050607 27.39804328 22.276117 30.098883 18.25 34.125 C10.74156497 39.32314733 1.86100479 39.09489047 -7 38.375 C-8.68025684 37.74336784 -10.34996621 37.08183145 -12 36.375 C-12.02465098 31.40877651 -12.04283649 26.44258834 -12.05493164 21.47631836 C-12.0599719 19.78555684 -12.06680405 18.09479971 -12.07543945 16.40405273 C-12.08751857 13.97899293 -12.09323123 11.55399056 -12.09765625 9.12890625 C-12.10281754 8.36848526 -12.10797882 7.60806427 -12.11329651 6.82460022 C-12.11349238 5.0076743 -12.06197277 3.19086873 -12 1.375 C-9.54094815 -1.08405185 -3.29454785 0.04457568 0 0 Z M-9 2.375 C-9 13.265 -9 24.155 -9 35.375 C-3.740625 35.49875 -3.740625 35.49875 1.625 35.625 C3.265896 35.67962402 3.265896 35.67962402 4.93994141 35.73535156 C10.97716893 35.80401935 14.4421497 35.45076998 19 31.375 C22.6469441 26.57638935 23.64750358 22.89329807 23.390625 16.875 C22.61492052 11.9104913 20.60460761 7.97960761 17.0625 4.4375 C11.79646912 1.72469621 5.95334974 2.25703554 0.1875 2.3125 C-2.844375 2.333125 -5.87625 2.35375 -9 2.375 Z " fill="#050507" transform="translate(293,98.625)"/>
<path d="M0 0 C0 0.33 0 0.66 0 1 C-4.12352578 2.0632991 -8.12014462 2.13912968 -12.34863281 2.23925781 C-27.24903398 2.62368509 -42.02122052 4.083689 -55 12 C-56.2065625 12.70382813 -56.2065625 12.70382813 -57.4375 13.421875 C-61.01987651 15.62809468 -64.38680279 18.10768478 -67.79296875 20.57421875 C-70 22 -70 22 -72 22 C-72 22.66 -72 23.32 -72 24 C-74.3751432 26.51086567 -76.86637921 28.87341188 -79.375 31.25 C-82.21157649 34.22165156 -84.50771902 37.30127437 -86.8125 40.6875 C-87.21919922 41.26822266 -87.62589844 41.84894531 -88.04492188 42.44726562 C-90.28899053 45.44666357 -90.28899053 45.44666357 -91 49 C-91.66 49 -92.32 49 -93 49 C-92.938125 49.7425 -92.87625 50.485 -92.8125 51.25 C-93.0351843 54.51603642 -93.98606447 55.50271994 -96 58 C-96.70514846 60.14733927 -96.70514846 60.14733927 -97 62 C-97.66 62 -98.32 62 -99 62 C-98.45522659 56.57780213 -96.5408164 52.53358288 -94 47.8125 C-93.59845703 47.06291016 -93.19691406 46.31332031 -92.78320312 45.54101562 C-89.20699024 39.05250456 -85.02663811 33.45067788 -80 28 C-79.33871094 27.23558594 -78.67742187 26.47117187 -77.99609375 25.68359375 C-63.5310161 9.90101377 -40.35114072 0.28832106 -19.20703125 -0.984375 C-12.78581882 -1.01565984 -6.39617118 -0.52760295 0 0 Z " fill="#050507" transform="translate(146,50)"/>
<path d="M0 0 C0 0.66 0 1.32 0 2 C0.763125 2.268125 1.52625 2.53625 2.3125 2.8125 C4.90483979 3.95795247 6.30075537 4.76415181 8 7 C8 7.99 8 8.98 8 10 C8.66 10 9.32 10 10 10 C15.40244215 21.44160069 17.38977188 32.18075343 13 44.4375 C12.35801005 45.96891352 11.70101687 47.49469145 11 49 C10.01 49 9.02 49 8 49 C8.30035156 48.06800781 8.60070312 47.13601562 8.91015625 46.17578125 C12.39429487 34.76341888 13.30219642 24.43379209 8.22265625 13.21875 C4.2152832 5.94658422 -0.92768196 1.96690302 -8.796875 -0.58203125 C-17.73079542 -2.27694168 -28.25521638 -2.15865201 -36 3 C-38.95094079 5.80165205 -41.48578408 8.80793175 -44 12 C-44.66 12.66 -45.32 13.32 -46 14 C-46.33 13.34 -46.66 12.68 -47 12 C-44.63024363 8.27609713 -42.35037463 4.90365801 -39 2 C-38.34 2 -37.68 2 -37 2 C-37 1.34 -37 0.68 -37 0 C-23.97492456 -5.14241367 -12.98093666 -6.98973512 0 0 Z " fill="#050506" transform="translate(402,102)"/>
<path d="M0 0 C3.6611314 3.47486331 6.53615949 6.98048184 9.375 11.1875 C10.15191424 12.3336246 10.92926353 13.47945441 11.70703125 14.625 C12.08939941 15.19089844 12.47176758 15.75679687 12.86572266 16.33984375 C15.11160026 19.62696551 17.45533544 22.84628107 19.78515625 26.07421875 C21 28 21 28 21 30 C22.98 30.66 24.96 31.32 27 32 C27 32.99 27 33.98 27 35 C29.97 35.33 32.94 35.66 36 36 C35.01 33.03 34.02 30.06 33 27 C35.59783875 29.5082581 38.03692381 31.9572319 40 35 C40 35.99 40 36.98 40 38 C34.96025237 38.8466776 29.95087785 39.53082986 25 38 C21.18597127 34.5738386 18.89395825 30.62081425 16.34228516 26.21337891 C13.83206225 22.07411356 10.91870764 18.21695877 8.0625 14.3125 C7.5061084 13.53471191 6.9497168 12.75692383 6.37646484 11.95556641 C5.85133301 11.2238623 5.32620117 10.4921582 4.78515625 9.73828125 C4.08724976 8.76435425 4.08724976 8.76435425 3.37524414 7.77075195 C2.02609833 6.03360397 0.58908604 4.51769274 -1 3 C-1.37318359 3.79664063 -1.37318359 3.79664063 -1.75390625 4.609375 C-3.31728207 7.60870416 -5.09708963 10.41227228 -6.9375 13.25 C-7.62714844 14.32765625 -8.31679688 15.4053125 -9.02734375 16.515625 C-9.67832031 17.33546875 -10.32929687 18.1553125 -11 19 C-11.99 19 -12.98 19 -14 19 C-3.02766798 1.51383399 -3.02766798 1.51383399 0 0 Z " fill="#030304" transform="translate(844,138)"/>
<path d="M0 0 C6.96661256 0 11.77272481 0.08135362 18.125 2 C18.7953125 2.19078125 19.465625 2.3815625 20.15625 2.578125 C21.77421679 3.04040123 23.38766483 3.51844923 25 4 C24.67 4.66 24.34 5.32 24 6 C23.24976563 5.79503906 22.49953125 5.59007813 21.7265625 5.37890625 C20.70304687 5.10949219 19.67953125 4.84007813 18.625 4.5625 C17.62726563 4.29566406 16.62953125 4.02882813 15.6015625 3.75390625 C12.61825468 3.12941774 9.80030695 2.73982868 6.77490234 2.45288086 C5.43146255 2.32386635 5.43146255 2.32386635 4.06088257 2.19224548 C3.0407457 2.09708397 3.0407457 2.09708397 2 2 C1.9767803 9.45862959 1.95903595 16.91725132 1.94818783 24.37590981 C1.94298002 27.83964952 1.93592071 31.30336441 1.92456055 34.76708984 C1.91156839 38.75357766 1.9067544 42.74005559 1.90234375 46.7265625 C1.89718246 47.96427399 1.89202118 49.20198547 1.88670349 50.47720337 C1.88662796 51.6379538 1.88655243 52.79870422 1.88647461 53.99462891 C1.884254 55.01166901 1.88203339 56.02870911 1.87974548 57.0765686 C2.00503141 60.12231548 2.43784215 63.00656992 3 66 C4.32 66.33 5.64 66.66 7 67 C7 67.33 7 67.66 7 68 C4.69 68 2.38 68 0 68 C0 45.56 0 23.12 0 0 Z " fill="#070708" transform="translate(132,72)"/>
<path d="M0 0 C4.29 0 8.58 0 13 0 C13.09765625 9.27734375 13.09765625 9.27734375 13 12 C12 13 12 13 9.27734375 13.09765625 C6.18489583 13.06510417 3.09244792 13.03255208 0 13 C0 8.71 0 4.42 0 0 Z " fill="#030304" transform="translate(65,133)"/>
<path d="M0 0 C4.99911924 0.47610659 7.97832683 2.03162219 12 5 C10.54955729 9.10958767 8.48889248 12.43258745 6 16 C2.37 14.35 -1.26 12.7 -5 11 C-3.90309312 6.61237247 -2.29817473 3.85500277 0 0 Z " fill="#050505" transform="translate(76,101)"/>
<path d="M0 0 C4.19360449 0.67097672 7.40334352 2.8558394 11 5 C9.77472971 9.05281712 8.30119506 12.44360764 6 16 C1.24518354 15.42365861 -1.97048212 13.44931479 -6 11 C-4.34703566 6.90694544 -2.86453858 3.41016497 0 0 Z " fill="#030305" transform="translate(99,184)"/>
<path d="M0 0 C2.84227031 2.74426099 5.00091378 5.57299505 7 9 C5.85629945 12.43110164 5.13496691 12.91496564 2.1875 14.8125 C1.50042969 15.27269531 0.81335938 15.73289063 0.10546875 16.20703125 C-2 17 -2 17 -4.1171875 16.3515625 C-7.28636691 14.07659139 -8.33474639 11.5155354 -10 8 C-8.76736651 4.30209954 -7.79947549 4.0645154 -4.4375 2.3125 C-3.61121094 1.87550781 -2.78492187 1.43851563 -1.93359375 0.98828125 C-1.29550781 0.66214844 -0.65742187 0.33601562 0 0 Z " fill="#151517" transform="translate(81,161)"/>
<path d="M0 0 C2.96672889 1.94371892 4.48246893 4.94731791 5.8125 8.1875 C5.8125 9.1775 5.8125 10.1675 5.8125 11.1875 C4.203125 12.609375 4.203125 12.609375 2.0625 13.9375 C1.36640625 14.38609375 0.6703125 14.8346875 -0.046875 15.296875 C-2.1875 16.1875 -2.1875 16.1875 -4.30859375 16.03515625 C-7.67500108 14.51642363 -8.86147152 11.49528532 -10.1875 8.1875 C-10.375 6 -10.375 6 -9.1875 4.1875 C-6.35515512 1.98948235 -3.61119418 0.30953093 0 0 Z " fill="#151516" transform="translate(165.1875,183.8125)"/>
<path d="M0 0 C3.63 1.98 7.26 3.96 11 6 C7.38671875 13.71484375 7.38671875 13.71484375 6 16 C5.01 16.33 4.02 16.66 3 17 C0.73828125 15.78515625 0.73828125 15.78515625 -1.6875 14.0625 C-2.49574219 13.49660156 -3.30398437 12.93070313 -4.13671875 12.34765625 C-4.75160156 11.90292969 -5.36648437 11.45820313 -6 11 C-4.45657029 6.91894938 -2.50065501 3.58427218 0 0 Z " fill="#131215" transform="translate(183,161)"/>
<path d="M0 0 C3.16742814 2.27185594 4.21518581 4.83535755 5.87890625 8.34765625 C4.59860635 12.18855596 3.10260557 12.78880028 -0.34765625 14.60546875 C-2.12109375 15.34765625 -2.12109375 15.34765625 -4.30859375 15.47265625 C-7.21621471 13.667926 -8.49631339 11.30707762 -10.12109375 8.34765625 C-10.12109375 7.02765625 -10.12109375 5.70765625 -10.12109375 4.34765625 C-8.51171875 2.79296875 -8.51171875 2.79296875 -6.37109375 1.47265625 C-5.675 1.02148438 -4.97890625 0.5703125 -4.26171875 0.10546875 C-2.12109375 -0.65234375 -2.12109375 -0.65234375 0 0 Z " fill="#030304" transform="translate(104.12109375,78.65234375)"/>
<path d="M0 0 C2.83203125 0.03255208 5.6640625 0.06510417 8.49609375 0.09765625 C8.49609375 4.38765625 8.49609375 8.67765625 8.49609375 13.09765625 C4.53609375 13.09765625 0.57609375 13.09765625 -3.50390625 13.09765625 C-3.6015625 3.8203125 -3.6015625 3.8203125 -3.50390625 1.09765625 C-2.50390625 0.09765625 -2.50390625 0.09765625 0 0 Z " fill="#171719" transform="translate(129.50390625,192.90234375)"/>
<path d="M0 0 C5.09272717 1.49335609 8.11265093 4.57294188 11.75 8.25 C12.67425781 9.18392578 12.67425781 9.18392578 13.6171875 10.13671875 C27.17573084 24.2342 37.0942374 43.51006708 37.1875 63.375 C37.0946875 65.169375 37.0946875 65.169375 37 67 C36.34 67 35.68 67 35 67 C34.67 66.01 34.34 65.02 34 64 C34.33 63.67 34.66 63.34 35 63 C33.58579756 52.33575914 30.98888291 40.52897344 25.34375 31.2890625 C24 29 24 29 24 26 C23.34 26 22.68 26 22 26 C20.4921875 24.1015625 20.4921875 24.1015625 18.875 21.625 C18.33617187 20.81289062 17.79734375 20.00078125 17.2421875 19.1640625 C16 17 16 17 16 15 C15.34 15 14.68 15 14 15 C12.5625 13.50390625 12.5625 13.50390625 11 11.5625 C8.85474956 8.84811762 8.85474956 8.84811762 6 7 C6 6.34 6 5.68 6 5 C5.195625 4.731875 4.39125 4.46375 3.5625 4.1875 C2.716875 3.795625 1.87125 3.40375 1 3 C0.67 2.01 0.34 1.02 0 0 Z " fill="#050506" transform="translate(184,67)"/>
<path d="M0 0 C0.33 0 0.66 0 1 0 C2.01093103 21.86606381 -4.14780011 44.62007828 -18.5625 61.5 C-19.366875 62.325 -20.17125 63.15 -21 64 C-21.66 63.34 -22.32 62.68 -23 62 C-22.58363281 61.62746094 -22.16726562 61.25492188 -21.73828125 60.87109375 C-8.2713012 46.3751759 -3.17404691 27.04091261 -1.64550781 7.94555664 C-1.53867676 6.62092407 -1.53867676 6.62092407 -1.4296875 5.26953125 C-1.37022949 4.47135986 -1.31077148 3.67318848 -1.24951172 2.85083008 C-1 1 -1 1 0 0 Z " fill="#050506" transform="translate(221,134)"/>
<path d="M0 0 C-4.81356096 12.13242558 -22.30972078 19.88842798 -33.32666016 24.90820312 C-42.15501609 28.51371981 -51.47832309 30.26103814 -61 30 C-57.80892025 27.8726135 -56.22701761 27.60558911 -52.5 27.125 C-43.08988758 25.66422443 -34.84566636 22.07087388 -26.3125 17.953125 C-24 17 -24 17 -21 17 C-21 16.34 -21 15.68 -21 15 C-18.98828125 13.44921875 -18.98828125 13.44921875 -16.3125 11.6875 C-12.45463876 9.07024858 -9.210194 6.39902894 -6 3 C-2.37931034 0 -2.37931034 0 0 0 Z " fill="#040405" transform="translate(199,198)"/>
<path d="M0 0 C14.97256459 8.49866211 23.91063631 22.37495013 28.8125 38.5625 C30.14403768 43.75400084 30.31225593 48.66851907 30 54 C29.34 53.67 28.68 53.34 28 53 C27.62520776 50.88807547 27.35170826 48.7579083 27.125 46.625 C25.80924401 36.6454969 22.81676901 28.73167842 17.3671875 20.2890625 C16 18 16 18 14.94140625 15.28125 C13.7647656 12.42997141 12.767013 12.1738843 10 11 C8.25 9.5 8.25 9.5 7 8 C7 7.34 7 6.68 7 6 C6.4225 5.71125 5.845 5.4225 5.25 5.125 C3.16666667 4.08333333 1.08333333 3.04166667 -1 2 C-0.67 1.34 -0.34 0.68 0 0 Z " fill="#070708" transform="translate(169,83)"/>
<path d="M0 0 C7.72919608 7.06669356 12.83441732 16.03317743 13.43359375 26.6484375 C13.45592302 28.22380063 13.45685978 29.79959758 13.4375 31.375 C13.43427734 32.19846924 13.43105469 33.02193848 13.42773438 33.87036133 C13.27761945 40.45665371 11.98144325 46.07704354 9 52 C7.88257055 48.64771164 8.15272495 47.26870332 8.875 43.875 C9.14957031 42.54082031 9.14957031 42.54082031 9.4296875 41.1796875 C10 39 10 39 11 38 C10.41799306 24.40598085 8.89694471 11.17971456 -1 1 C-0.67 0.67 -0.34 0.34 0 0 Z " fill="#030305" transform="translate(717,101)"/>
<path d="M0 0 C0.33 0 0.66 0 1 0 C1.06058594 0.84304687 1.12117188 1.68609375 1.18359375 2.5546875 C1.26738281 3.65039062 1.35117187 4.74609375 1.4375 5.875 C1.51871094 6.96554688 1.59992187 8.05609375 1.68359375 9.1796875 C1.83001703 11.94728971 1.83001703 11.94728971 3 14 C3.13053673 15.45620979 3.22983035 16.91529026 3.3125 18.375 C4.20538067 28.0571748 8.29622033 37.09516804 12 46 C11.34 46.66 10.68 47.32 10 48 C2.25404111 32.04120252 -0.63628635 17.72175318 0 0 Z " fill="#050506" transform="translate(43,134)"/>
<path d="M0 0 C4.80139866 -0.07484195 9.60244862 -0.12892454 14.40429688 -0.16479492 C16.03358891 -0.17976766 17.66284145 -0.20015321 19.29199219 -0.22631836 C40.8240769 -0.56316999 40.8240769 -0.56316999 50.125 6.1875 C50.87007812 6.71730469 51.61515625 7.24710937 52.3828125 7.79296875 C52.91648437 8.19128906 53.45015625 8.58960937 54 9 C53.01 9.33 52.02 9.66 51 10 C48.79296875 8.85546875 48.79296875 8.85546875 46.1875 7.1875 C32.69885371 -0.36055078 15.03867857 1.4172699 0 1 C0 0.67 0 0.34 0 0 Z " fill="#060608" transform="translate(660,89)"/>
<path d="M0 0 C1 2 1 2 0.0625 5.3125 C-2.75323757 16.07055941 -0.75594493 25.75498951 3 36 C2.01 35.67 1.02 35.34 0 35 C-1.0625 32.75 -1.0625 32.75 -2 30 C-2.33257812 29.22140625 -2.66515625 28.4428125 -3.0078125 27.640625 C-6.30475904 18.86607437 -5.01819166 9.69558303 -2 1 C-1.34 0.67 -0.68 0.34 0 0 Z " fill="#050506" transform="translate(355,116)"/>
<path d="M0 0 C1.84765625 0.33984375 1.84765625 0.33984375 4.0625 0.9375 C5.16271484 1.22947266 5.16271484 1.22947266 6.28515625 1.52734375 C7.13400391 1.76130859 7.13400391 1.76130859 8 2 C8 2.66 8 3.32 8 4 C9.10408203 4.29003906 9.10408203 4.29003906 10.23046875 4.5859375 C11.20628906 4.84632813 12.18210937 5.10671875 13.1875 5.375 C14.15042969 5.63023437 15.11335938 5.88546875 16.10546875 6.1484375 C19 7 19 7 21.546875 8.06640625 C24.14724195 9.05603635 26.2938348 9.36622962 29.0625 9.5625 C30.48175781 9.67078125 30.48175781 9.67078125 31.9296875 9.78125 C32.94289062 9.8534375 33.95609375 9.925625 35 10 C37.22934648 10.18534982 39.45851951 10.37279953 41.6875 10.5625 C43.45829864 10.70875402 45.22911917 10.8547445 47 11 C47 11.33 47 11.66 47 12 C30.48627053 12.50552233 12.49682584 11.89884528 -1 1 C-0.67 0.67 -0.34 0.34 0 0 Z " fill="#040406" transform="translate(90,216)"/>
<path d="M0 0 C2.84227031 2.74426099 5.00091378 5.57299505 7 9 C5.85629945 12.43110164 5.13496691 12.91496564 2.1875 14.8125 C1.50042969 15.27269531 0.81335938 15.73289063 0.10546875 16.20703125 C-2 17 -2 17 -4.1171875 16.3515625 C-7.28636691 14.07659139 -8.33474639 11.5155354 -10 8 C-8.76736651 4.30209954 -7.79947549 4.0645154 -4.4375 2.3125 C-3.61121094 1.87550781 -2.78492187 1.43851563 -1.93359375 0.98828125 C-1.29550781 0.66214844 -0.65742187 0.33601562 0 0 Z M-7 6 C-6.55296014 10.47883696 -6.55296014 10.47883696 -4 14 C-1.17042171 13.63723355 1.29084291 12.90305236 4 12 C3.57265562 7.76746472 3.57265562 7.76746472 1.5625 4.125 C-1.76308072 1.73058188 -3.93815346 4.06620219 -7 6 Z " fill="#020203" transform="translate(81,161)"/>
<path d="M0 0 C0.66 0 1.32 0 2 0 C1.8559912 1.66682531 1.70968156 3.33345185 1.5625 5 C1.48128906 5.928125 1.40007812 6.85625 1.31640625 7.8125 C1.08323257 10.16150896 0.74579565 12.50072446 0.3515625 14.828125 C-0.22994479 19.41042427 0.65274762 23.32328412 1.8125 27.75 C1.99103516 28.49121094 2.16957031 29.23242188 2.35351562 29.99609375 C3.23439476 33.53869069 4.15771187 36.83226475 6 40 C5.01 40 4.02 40 3 40 C2.34956281 38.27255984 1.70485156 36.5429631 1.0625 34.8125 C0.70285156 33.84957031 0.34320313 32.88664062 -0.02734375 31.89453125 C-1.79790945 26.6254984 -2.19268002 21.72494408 -2.1875 16.1875 C-2.18814453 15.47916016 -2.18878906 14.77082031 -2.18945312 14.04101562 C-2.13868469 9.02417101 -1.58080982 4.74242947 0 0 Z " fill="#060607" transform="translate(341,116)"/>
<path d="M0 0 C13.36398909 0.70336785 24.91851812 5.83934039 36 13 C34.28125 13.66796875 34.28125 13.66796875 32 14 C29.84375 12.92578125 29.84375 12.92578125 27.5 11.3125 C19.06726189 5.96763217 9.76830054 3.64245761 0 2 C0 1.34 0 0.68 0 0 Z " fill="#08080A" transform="translate(146,51)"/>
<path d="M0 0 C2.875 0.3125 2.875 0.3125 6 1 C6.66 1.99 7.32 2.98 8 4 C6.68 6.31 5.36 8.62 4 11 C-1.75 9.375 -1.75 9.375 -4 6 C-2.68 4.02 -1.36 2.04 0 0 Z " fill="#161618" transform="translate(100,187)"/>
<path d="M0 0 C2.96672889 1.94371892 4.48246893 4.94731791 5.8125 8.1875 C5.8125 9.1775 5.8125 10.1675 5.8125 11.1875 C4.203125 12.609375 4.203125 12.609375 2.0625 13.9375 C1.36640625 14.38609375 0.6703125 14.8346875 -0.046875 15.296875 C-2.1875 16.1875 -2.1875 16.1875 -4.30859375 16.03515625 C-7.67500108 14.51642363 -8.86147152 11.49528532 -10.1875 8.1875 C-10.375 6 -10.375 6 -9.1875 4.1875 C-6.35515512 1.98948235 -3.61119418 0.30953093 0 0 Z M-9.1875 6.1875 C-7.8675 8.4975 -6.5475 10.8075 -5.1875 13.1875 C-2.42473823 12.66481534 0.1385876 12.07880413 2.8125 11.1875 C2.48289784 6.17214948 2.48289784 6.17214948 -0.1875 2.1875 C-4.18654969 2.1875 -5.98950422 3.91336967 -9.1875 6.1875 Z " fill="#030303" transform="translate(165.1875,183.8125)"/>
<path d="M0 0 C2.83203125 0.03255208 5.6640625 0.06510417 8.49609375 0.09765625 C8.49609375 4.38765625 8.49609375 8.67765625 8.49609375 13.09765625 C4.53609375 13.09765625 0.57609375 13.09765625 -3.50390625 13.09765625 C-3.6015625 3.8203125 -3.6015625 3.8203125 -3.50390625 1.09765625 C-2.50390625 0.09765625 -2.50390625 0.09765625 0 0 Z M-1.50390625 3.09765625 C-1.50390625 6.06765625 -1.50390625 9.03765625 -1.50390625 12.09765625 C1.13609375 12.09765625 3.77609375 12.09765625 6.49609375 12.09765625 C7.56156328 8.90124765 7.57037213 6.44018349 7.49609375 3.09765625 C4.52609375 3.09765625 1.55609375 3.09765625 -1.50390625 3.09765625 Z " fill="#040405" transform="translate(129.50390625,192.90234375)"/>
<path d="M0 0 C1.8125 1.75 1.8125 1.75 3 4 C2.9375 6.125 2.9375 6.125 2 8 C-0.58152302 9.72101535 -1.84918025 10 -5 10 C-5.99 8.02 -6.98 6.04 -8 4 C-4.5 0 -4.5 0 0 0 Z " fill="#161618" transform="translate(104,81)"/>
<path d="M0 0 C2.97 0.495 2.97 0.495 6 1 C6.6875 2.6875 6.6875 2.6875 7 5 C5.5625 7.75 5.5625 7.75 4 10 C1.0625 9.1875 1.0625 9.1875 -2 8 C-2.33 7.01 -2.66 6.02 -3 5 C-1.5625 2.3125 -1.5625 2.3125 0 0 Z " fill="#171718" transform="translate(77,104)"/>
<path d="M0 0 C-2.78920131 2.96352639 -5.55459989 5.45462833 -8.875 7.8125 C-13.24988338 10.99801394 -16.6011922 14.8152179 -20 19 C-20.66 18.67 -21.32 18.34 -22 18 C-22 17.34 -22 16.68 -22 16 C-21.34 16 -20.68 16 -20 16 C-19.67 15.01 -19.34 14.02 -19 13 C-18.34 13 -17.68 13 -17 13 C-16.76925781 12.43796875 -16.53851563 11.8759375 -16.30078125 11.296875 C-14.65663939 8.39370559 -12.64365682 6.50362515 -10.1875 4.25 C-9.33542969 3.45078125 -8.48335937 2.6515625 -7.60546875 1.828125 C-4.72896549 -0.19017114 -3.42854432 -0.41856555 0 0 Z " fill="#050505" transform="translate(92,73)"/>
<path d="M0 0 C1.134375 0.020625 2.26875 0.04125 3.4375 0.0625 C3.4375 2.7025 3.4375 5.3425 3.4375 8.0625 C0.7975 8.0625 -1.8425 8.0625 -4.5625 8.0625 C-4.60491723 5.72955225 -4.60342937 3.39547433 -4.5625 1.0625 C-3.5625 0.0625 -3.5625 0.0625 0 0 Z " fill="#171719" transform="translate(71.5625,134.9375)"/>
<path d="M0 0 C2.91517292 1.07401108 4.77810176 1.77810176 7 4 C4.03 8.95 4.03 8.95 1 14 C-3.2129476 12.31482096 -6.32315889 10.56523798 -10 8 C-9.34 6.35 -8.68 4.7 -8 3 C-7.938125 3.598125 -7.87625 4.19625 -7.8125 4.8125 C-6.66445318 7.90339529 -4.89452948 8.5880344 -2 10 C-1.34 10 -0.68 10 0 10 C0.33 9.34 0.66 8.68 1 8 C1.66 8 2.32 8 3 8 C2.45276317 4.62537285 1.9451 2.91765 0 0 Z " fill="#030304" transform="translate(187,164)"/>
<path d="M0 0 C0.639375 0.70125 1.27875 1.4025 1.9375 2.125 C9.0399652 9.10842947 16.27778816 12.12464949 26 14 C26 14.33 26 14.66 26 15 C19.19796625 15.37634203 14.24309927 14.77471079 8 12 C8 11.34 8 10.68 8 10 C6.68 9.34 5.36 8.68 4 8 C4 7.34 4 6.68 4 6 C3.360625 5.731875 2.72125 5.46375 2.0625 5.1875 C0 4 0 4 -1 1 C-0.67 0.67 -0.34 0.34 0 0 Z " fill="#060607" transform="translate(358,152)"/>
<path d="M0 0 C0.33 0.66 0.66 1.32 1 2 C-3.4592229 7.85273006 -8.61388885 13.82834419 -16.25 14.9375 C-19.2789733 14.98798289 -21.17735646 14.80557747 -24 14 C-23.20335937 13.75765625 -22.40671875 13.5153125 -21.5859375 13.265625 C-13.04658727 10.56461398 -7.21739798 7.57267787 -1 1 C-0.67 0.67 -0.34 0.34 0 0 Z " fill="#050507" transform="translate(409,152)"/>
<path d="M0 0 C0.66 0 1.32 0 2 0 C2.12117187 1.22976562 2.24234375 2.45953125 2.3671875 3.7265625 C2.53610295 5.3594118 2.70539364 6.99222232 2.875 8.625 C2.95363281 9.43324219 3.03226563 10.24148437 3.11328125 11.07421875 C3.59531404 15.63499049 4.3384118 19.68545585 6 24 C3 23 3 23 1.875 21.3125 C-0.00194069 16.35201389 -0.11610932 11.37871302 -0.0625 6.125 C-0.05347656 4.97257813 -0.04445313 3.82015625 -0.03515625 2.6328125 C-0.02355469 1.76398438 -0.01195312 0.89515625 0 0 Z " fill="#050506" transform="translate(559,126)"/>
<path d="M0 0 C0 3.93169105 -1.39419615 5.16427228 -4 8 C-4.66 8 -5.32 8 -6 8 C-6.2475 8.680625 -6.495 9.36125 -6.75 10.0625 C-8.24197908 13.56865083 -10.06835511 16.71620368 -12 20 C-12.66 20 -13.32 20 -14 20 C-11.96788932 10.94787061 -7.19081675 5.65732845 0 0 Z " fill="#050506" transform="translate(356,95)"/>
<path d="M0 0 C3.30171338 4.95257007 3.11722879 9.45651993 3.0625 15.3125 C3.05347656 16.56675781 3.04445313 17.82101563 3.03515625 19.11328125 C3.01775391 20.54220703 3.01775391 20.54220703 3 22 C2.34 22 1.68 22 1 22 C0.66280953 19.43795456 0.33012847 16.87545682 0 14.3125 C-0.09539063 13.59126953 -0.19078125 12.87003906 -0.2890625 12.12695312 C-0.76482786 8.40578832 -1.23001291 4.75927342 -1 1 C-0.67 0.67 -0.34 0.34 0 0 Z " fill="#050506" transform="translate(634,117)"/>
<path d="M0 0 C3.85550018 3.63635985 6.86741138 7.41691848 9.8125 11.8125 C10.21919922 12.40998047 10.62589844 13.00746094 11.04492188 13.62304688 C12.03479703 15.07874564 13.01809735 16.53891174 14 18 C13.01 18 12.02 18 11 18 C7 12.74285714 7 12.74285714 7 10 C6.34 10 5.68 10 5 10 C3.4921875 8.03125 3.4921875 8.03125 1.875 5.5 C1.33617187 4.6646875 0.79734375 3.829375 0.2421875 2.96875 C-0.16773438 2.3190625 -0.57765625 1.669375 -1 1 C-0.67 0.67 -0.34 0.34 0 0 Z " fill="#030304" transform="translate(863,146)"/>
<path d="M0 0 C2.64158793 0.3773697 3.80892319 0.80184627 5.6875 2.75 C9.00293743 5.97583101 12.92098889 7.87333609 17 10 C17 10.66 17 11.32 17 12 C12.90498884 10.56525156 9.7396239 8.56534514 6.25 6 C5.28578125 5.29875 4.3215625 4.5975 3.328125 3.875 C1 2 1 2 0 0 Z " fill="#040405" transform="translate(72,205)"/>
<path d="M0 0 C3.35620271 1.38877354 5.07298728 2.91677965 7 6 C7 6.66 7 7.32 7 8 C7.66 8 8.32 8 9 8 C10.37310707 9.29233607 11.71034824 10.62437146 13 12 C12.67 12.99 12.34 13.98 12 15 C2.87822878 6.07749077 2.87822878 6.07749077 0 2 C0 1.34 0 0.68 0 0 Z " fill="#030304" transform="translate(59,190)"/>
<path d="M0 0 C0.66 0.33 1.32 0.66 2 1 C-0.64 5.62 -3.28 10.24 -6 15 C-6.66 14.67 -7.32 14.34 -8 14 C-6.78065514 9.96678237 -5.44045073 6.45730521 -3 3 C-2.34 3 -1.68 3 -1 3 C-0.67 2.01 -0.34 1.02 0 0 Z " fill="#040405" transform="translate(69,92)"/>
<path d="M0 0 C1.0209375 0.433125 1.0209375 0.433125 2.0625 0.875 C5.32893093 2.12597355 8.62846123 3.07447955 12 4 C12 4.66 12 5.32 12 6 C12.99 6.33 13.98 6.66 15 7 C13.32421875 7.67578125 13.32421875 7.67578125 11 8 C8.45703125 6.85546875 8.45703125 6.85546875 5.8125 5.1875 C4.93207031 4.64480469 4.05164063 4.10210937 3.14453125 3.54296875 C1 2 1 2 0 0 Z " fill="#09090C" transform="translate(161,66)"/>
<path d="M0 0 C1.98 0 3.96 0 6 0 C5.01 0.33 4.02 0.66 3 1 C2.67 5.62 2.34 10.24 2 15 C1.67 15 1.34 15 1 15 C0.67 10.05 0.34 5.1 0 0 Z " fill="#08080A" transform="translate(281,145)"/>
<path d="M0 0 C0.66 0.66 1.32 1.32 2 2 C1.625 5.625 1.625 5.625 1 9 C3.64 9 6.28 9 9 9 C5.99382731 12.00617269 3.17618402 11.59585316 -1 12 C-0.67 8.04 -0.34 4.08 0 0 Z " fill="#09090A" transform="translate(66,134)"/>
<path d="M0 0 C2.475 0.99 2.475 0.99 5 2 C5 5 5 5 4 7 C2 5.75 2 5.75 0 4 C0 2.68 0 1.36 0 0 Z " fill="#0C0C0D" transform="translate(866,168)"/>
<path d="M0 0 C1.44096586 0.42594588 2.87768712 0.86626633 4.3125 1.3125 C5.11300781 1.55613281 5.91351563 1.79976563 6.73828125 2.05078125 C9.09964573 3.04182023 10.33879993 4.08074943 12 6 C7.61110675 5.33501617 4.0188515 3.81242323 0 2 C0 1.34 0 0.68 0 0 Z " fill="#060609" transform="translate(157,77)"/>
<path d="M0 0 C1.27351308 2.54702616 0.80191925 3.4282945 0.0625 6.125 C-0.13214844 6.84945312 -0.32679688 7.57390625 -0.52734375 8.3203125 C-0.68332031 8.87460938 -0.83929688 9.42890625 -1 10 C-1.66 9.67 -2.32 9.34 -3 9 C-3.36923077 3.46153846 -3.36923077 3.46153846 -1.5 1.125 C-1.005 0.75375 -0.51 0.3825 0 0 Z " fill="#040404" transform="translate(355,116)"/>
<path d="M0 0 C0.33 0.99 0.66 1.98 1 3 C-0.125 4.5 -0.125 4.5 -2 6 C-5.1875 6.1875 -5.1875 6.1875 -8 6 C-4.375 3 -4.375 3 -1 3 C-0.67 2.01 -0.34 1.02 0 0 Z " fill="#0A0A0B" transform="translate(107,86)"/>
<path d="M0 0 C2.26273207 3.55818936 2.07331744 6.12547951 1.625 10.25 C1.51414063 11.32765625 1.40328125 12.4053125 1.2890625 13.515625 C1.19367187 14.33546875 1.09828125 15.1553125 1 16 C0.67 16 0.34 16 0 16 C-0.19441368 13.7089095 -0.38033135 11.41709663 -0.5625 9.125 C-0.71912109 7.21074219 -0.71912109 7.21074219 -0.87890625 5.2578125 C-1 2 -1 2 0 0 Z " fill="#0A0A0C" transform="translate(53,129)"/>
<path d="M0 0 C3 1 3 1 4.6875 4.0625 C5.120625 5.031875 5.55375 6.00125 6 7 C5.01 7 4.02 7 3 7 C2.01 4.69 1.02 2.38 0 0 Z " fill="#040405" transform="translate(54,182)"/>
</svg>
